<svg width="53" height="50" viewBox="0 0 53 50" fill="none" xmlns="http://www.w3.org/2000/svg">
<path d="M50.0652 34.8956C50.0804 34.8645 50.094 34.8328 50.1047 34.8002C53.1905 27.6782 52.6391 18.9469 48.6313 12.2735C50.7709 9.71567 47.9917 6.05275 44.9524 7.47C44.4183 6.92421 43.8576 6.40111 43.2765 5.90651C44.4171 2.80577 40.6103 0.262128 38.2395 2.57883C31.3485 -0.900801 22.7777 -0.856735 15.9248 2.69657C13.487 0.113136 9.39289 2.88312 10.8689 6.1245C10.0236 6.86366 9.22344 7.66215 8.48571 8.50653C7.84873 9.23562 9.0027 10.2349 9.63531 9.5109C10.3216 8.72544 11.0653 7.98242 11.8507 7.29384C13.3697 8.3894 15.5721 7.83129 16.4054 6.159C19.1553 6.95057 21.7814 8.08663 24.2284 9.54469C24.0236 10.2834 24.1072 11.1085 24.4587 11.7905C22.4447 13.5302 20.631 15.4983 19.056 17.6551C17.602 17.2157 15.9993 17.9511 15.367 19.3281C12.1605 19.3453 8.94408 19.6902 5.78615 20.3577C5.5073 19.838 5.08455 19.4074 4.57203 19.119C5.16535 16.8053 6.1051 14.6043 7.37092 12.5692C7.87529 11.7581 6.60215 10.9149 6.07467 11.7629C4.72886 13.9265 3.72928 16.2663 3.09708 18.7259C-0.559526 18.788 -1.1734 23.8466 2.30765 24.8197C2.25635 32.0191 5.3691 39.0187 10.7668 43.7868C9.6408 46.8284 13.2963 49.3373 15.7086 47.1919C22.7489 50.9356 31.6466 50.9361 38.6872 47.1932C41.1408 49.6198 45.0706 46.9088 43.6885 43.7365C46.4704 41.2642 48.6315 38.2403 50.0652 34.8956ZM49.1034 33.1885C46.9906 31.0893 44.6784 29.1851 42.2097 27.5135C42.5603 26.4153 42.2556 25.1798 41.4369 24.3691C43.5128 20.9175 45.1424 17.2165 46.2896 13.3504C46.6718 13.3517 47.0393 13.2812 47.3779 13.1536C50.893 19.0901 51.5358 26.7443 49.1034 33.1885ZM13.9799 41.8169C13.3375 35.525 14.4647 29.2479 17.2545 23.5753C18.9877 24.1162 20.861 22.9764 21.1975 21.1974C26.4606 21.8462 31.5294 23.3913 36.2864 25.7977C36.0576 26.687 36.247 27.6675 36.792 28.4073C31.43 35.2004 24.3522 40.312 16.2517 43.2416C15.7609 42.4644 14.9354 41.9207 13.9799 41.8169ZM37.7154 26.5712C37.7154 25.7062 38.414 25.0026 39.2726 25.0026C41.3384 25.0886 41.3377 28.0541 39.2726 28.1397C38.414 28.1397 37.7154 27.4361 37.7154 26.5712ZM47.8535 10.2554C47.8535 11.1203 47.1549 11.8239 46.2963 11.8239C44.2305 11.7379 44.231 8.77246 46.2963 8.68677C47.1549 8.68677 47.8535 9.39041 47.8535 10.2554ZM43.786 8.46094C42.7311 9.94322 43.2207 12.086 44.8112 12.967C43.6999 16.6963 42.1245 20.2662 40.1204 23.596C39.7014 23.4755 39.2363 23.4456 38.8055 23.5115C36.7107 19.0382 33.6625 15.009 29.939 11.7907C30.2908 11.1083 30.3747 10.2847 30.1695 9.5449C32.5264 8.14067 35.051 7.03402 37.691 6.24734C38.5685 7.9414 40.9223 8.41972 42.3836 7.15157C42.868 7.56821 43.3368 8.00593 43.786 8.46094ZM25.6417 10.3735C25.6417 9.50856 26.3403 8.80492 27.1989 8.80492C29.2648 8.89092 29.2641 11.8563 27.1989 11.942C26.3403 11.942 25.6417 11.2384 25.6417 10.3735ZM40.4053 3.21102C41.2641 3.21102 41.9626 3.91466 41.9626 4.77961C41.8769 6.8605 38.9335 6.85999 38.8481 4.77961C38.8481 3.91466 39.5467 3.21102 40.4053 3.21102ZM13.6459 6.34809C12.7872 6.34809 12.0887 5.64445 12.0887 4.7795C12.1744 2.69851 15.1178 2.69922 15.2032 4.7795C15.2032 5.64445 14.5045 6.34809 13.6459 6.34809ZM16.7268 4.66247C16.7188 4.45058 16.6897 4.24429 16.6413 4.04523C23.0307 0.741058 31.0129 0.683457 37.4515 3.89156C37.3688 4.16827 37.3235 4.46086 37.322 4.76383C34.5451 5.58532 31.8898 6.74571 29.4109 8.22005C28.2194 6.98751 26.179 6.9871 24.987 8.21995C22.4038 6.68342 19.6309 5.48905 16.7268 4.66247ZM25.4693 12.9346C26.5015 13.639 27.896 13.6391 28.9283 12.9347C32.4833 16.0042 35.3956 19.8465 37.4016 24.1132C37.2656 24.2177 37.1386 24.3334 37.0218 24.4587C32.0066 21.915 26.6547 20.2976 21.0957 19.6469C20.9455 19.1926 20.6936 18.7847 20.3665 18.4508C21.8584 16.4241 23.5706 14.573 25.4693 12.9346ZM18.1685 19.0504C19.0272 19.0504 19.7257 19.7541 19.7257 20.619C19.64 22.7 16.6966 22.6994 16.6112 20.619C16.6113 19.7541 17.3099 19.0504 18.1685 19.0504ZM1.51201 21.8204C1.51201 20.9555 2.21056 20.2518 3.06919 20.2518C5.13493 20.3378 5.13431 23.3032 3.06919 23.3889C2.21066 23.389 1.51201 22.6854 1.51201 21.8204ZM3.8341 24.8191C3.8341 24.8191 6.15253 24.3135 6.15253 21.8406C6.15253 21.8406 12.1016 20.8896 15.0948 20.8562C15.1509 21.5957 15.4667 22.263 15.9511 22.7666C12.9765 28.7508 11.7768 35.3854 12.4674 42.0338C12.17 42.1578 11.8962 42.3272 11.6542 42.5332C6.67451 38.0722 3.8341 30.5978 3.8341 24.8191ZM13.6459 46.462C12.7872 46.462 12.0887 45.7584 12.0887 44.8935C12.0887 44.0285 12.7872 43.3249 13.6459 43.3249C14.493 43.3249 15.2032 44.0586 15.2032 44.8935C15.2032 45.7584 14.5045 46.462 13.6459 46.462ZM27.1989 48.4849C23.4944 48.4849 19.8311 47.5977 16.5569 45.9133C16.6898 45.5324 16.7484 45.0984 16.7226 44.6942C25.1021 41.6738 32.4246 36.3952 37.9717 29.3765C38.4274 29.5902 38.9331 29.6883 39.4356 29.6619C39.7747 30.9205 40.0426 32.2045 40.2325 33.4885C40.378 34.4714 41.8885 34.2518 41.7427 33.2652C41.5411 31.9019 41.2556 30.5384 40.8932 29.2029C41.0757 29.0894 41.2452 28.957 41.3997 28.8089C43.9468 30.5381 46.3215 32.5231 48.4729 34.72C47.1387 37.6694 45.1968 40.34 42.7296 42.5466C42.4856 42.3635 42.2136 42.2161 41.9216 42.1113C42.0716 40.6923 42.137 39.2596 42.115 37.8425C42.0995 36.8454 40.5731 36.8688 40.5886 37.8661C40.6098 39.2282 40.5467 40.6055 40.4018 41.9695C38.6016 42.2558 37.4242 44.1225 37.9202 45.8719C34.6255 47.583 30.9338 48.4849 27.1989 48.4849ZM40.886 46.5948C40.0274 46.5948 39.3288 45.8911 39.3288 45.0262C39.4145 42.9452 42.3579 42.9459 42.4433 45.0262C42.4433 45.8911 41.7447 46.5948 40.886 46.5948Z" fill="#A5B9D8"/>
</svg>
