<svg width="50" height="50" viewBox="0 0 50 50" fill="none" xmlns="http://www.w3.org/2000/svg">
<path d="M24.8997 27.8603C24.466 27.8603 24.1131 28.2131 24.1131 28.6472C24.1131 29.081 24.466 29.4342 24.8997 29.4342C25.3338 29.4342 25.6867 29.081 25.6867 28.6472C25.6867 28.2131 25.3335 27.8603 24.8997 27.8603Z" fill="#A5B9D8"/>
<path d="M24.9489 25.2575C24.0391 25.2575 23.1808 25.61 22.5319 26.2501C22.2439 26.5339 22.2409 26.9978 22.5247 27.2854C22.8085 27.5734 23.272 27.5764 23.5604 27.2926C23.9335 26.9245 24.4267 26.722 24.9489 26.722C25.4952 26.722 26.0033 26.9402 26.3802 27.3369C26.524 27.4883 26.7174 27.5646 26.9108 27.5646C27.092 27.5646 27.2736 27.4979 27.4155 27.3632C27.7085 27.0844 27.7203 26.6209 27.4418 26.3279C26.7952 25.6477 25.8866 25.2575 24.9489 25.2575Z" fill="#A5B9D8"/>
<path d="M29.3141 24.4431C28.1579 23.2548 26.6076 22.6006 24.9489 22.6006C23.333 22.6006 21.811 23.2262 20.6635 24.3622C20.3759 24.6471 20.3736 25.1106 20.6582 25.3979C20.9427 25.6851 21.4062 25.6874 21.6938 25.4032C22.5651 24.5403 23.7214 24.065 24.9489 24.065C26.2085 24.065 27.3861 24.5617 28.2643 25.4643C28.4081 25.6119 28.5985 25.6859 28.7892 25.6859C28.9731 25.6859 29.1573 25.6168 29.2996 25.4784C29.5895 25.1965 29.596 24.7326 29.3141 24.4431Z" fill="#A5B9D8"/>
<path d="M30.2148 23.518C30.3582 23.6641 30.5478 23.7373 30.7374 23.7373C30.9224 23.7373 31.1078 23.6675 31.2504 23.5275C31.5388 23.2441 31.543 22.7806 31.26 22.4918C29.5834 20.7851 27.3423 19.8448 24.9493 19.8448C22.6056 19.8448 20.3957 20.7531 18.7268 22.4026C18.4391 22.6868 18.4365 23.1503 18.7207 23.4379C19.0052 23.7255 19.4683 23.7286 19.7564 23.444C21.1495 22.0676 22.9935 21.3093 24.9493 21.3093C26.9459 21.3093 28.8159 22.094 30.2148 23.518Z" fill="#A5B9D8"/>
<path d="M3.6419 28.6427C5.64996 28.6427 7.2838 27.0084 7.2838 25C7.2838 22.9916 5.64996 21.3573 3.6419 21.3573C1.63384 21.3573 0 22.9916 0 25C0 27.0084 1.63384 28.6427 3.6419 28.6427ZM3.6419 22.8218C4.84277 22.8218 5.81933 23.7991 5.81933 25C5.81933 26.2012 4.84277 27.1782 3.6419 27.1782C2.44141 27.1782 1.46447 26.2012 1.46447 25C1.46447 23.7991 2.44141 22.8218 3.6419 22.8218Z" fill="#A5B9D8"/>
<path d="M46.3468 21.3573C44.3387 21.3573 42.7049 22.9916 42.7049 25C42.7049 27.0088 44.3387 28.6427 46.3468 28.6427C48.3552 28.6427 49.9887 27.0088 49.9887 25C49.9887 22.9916 48.3548 21.3573 46.3468 21.3573ZM46.3468 27.1782C45.1463 27.1782 44.1693 26.2009 44.1693 25C44.1693 23.7991 45.1463 22.8218 46.3468 22.8218C47.5476 22.8218 48.5242 23.7991 48.5242 25C48.5242 26.2009 47.5476 27.1782 46.3468 27.1782Z" fill="#A5B9D8"/>
<path d="M24.9894 7.28531C26.9974 7.28531 28.6313 5.65109 28.6313 3.64265C28.6313 1.63422 26.9974 0 24.9894 0C22.9813 0 21.3475 1.63383 21.3475 3.64265C21.3475 5.65109 22.9813 7.28531 24.9894 7.28531ZM24.9894 1.46446C26.1899 1.46446 27.1668 2.44179 27.1668 3.64265C27.1668 4.84352 26.1899 5.82085 24.9894 5.82085C23.7889 5.82085 22.8119 4.84352 22.8119 3.64265C22.8119 2.44179 23.7889 1.46446 24.9894 1.46446Z" fill="#A5B9D8"/>
<path d="M24.9894 42.7147C22.9813 42.7147 21.3475 44.3489 21.3475 46.3573C21.3475 48.3662 22.9809 50 24.9894 50C26.9974 50 28.6313 48.3662 28.6313 46.3573C28.6313 44.3489 26.9974 42.7147 24.9894 42.7147ZM24.9894 48.5355C23.7889 48.5355 22.8119 47.5582 22.8119 46.3573C22.8119 45.1565 23.7889 44.1792 24.9894 44.1792C26.1899 44.1792 27.1668 45.1565 27.1668 46.3573C27.1668 47.5582 26.1899 48.5355 24.9894 48.5355Z" fill="#A5B9D8"/>
<path d="M46.3468 42.6529C45.6628 42.6529 45.0227 42.8429 44.4753 43.1721L37.1831 35.7582C39.7244 32.8846 41.2698 29.1103 41.2698 24.9809C41.2698 20.8614 39.7317 17.0948 37.2006 14.2239L44.4165 6.88744C44.9765 7.23915 45.638 7.44324 46.3468 7.44324C48.3548 7.44324 49.9887 5.8094 49.9887 3.80058C49.9887 1.79214 48.3548 0.15831 46.3468 0.15831C44.3387 0.15831 42.7049 1.79214 42.7049 3.80096C42.7049 4.57191 42.9463 5.28755 43.3568 5.87692L36.1844 13.1687C33.2642 10.3989 29.3217 8.69713 24.9894 8.69713C22.6155 8.69713 20.3267 9.19685 18.1866 10.1826C17.8193 10.3516 17.6587 10.7864 17.8276 11.1538C17.997 11.5211 18.4319 11.6817 18.7992 11.5128C19.3566 11.256 19.9257 11.0367 20.5044 10.8524C19.7926 11.6009 19.1361 12.5355 18.5532 13.6433C17.9669 14.7572 17.4775 16.0038 17.0922 17.3462C15.8532 17.709 14.6992 18.1595 13.6608 18.692C12.5256 19.2741 11.5731 19.9318 10.8151 20.6459C11.0657 19.8265 11.3892 19.0269 11.7855 18.2507C12.8063 16.2514 14.2971 14.4791 16.0961 13.1264C16.4196 12.8834 16.4849 12.4245 16.2415 12.1014C15.9989 11.7779 15.5396 11.713 15.2161 11.956C14.7194 12.3295 14.2441 12.7323 13.7928 13.1607L6.63034 5.87921C7.04195 5.28908 7.2838 4.57306 7.2838 3.80096C7.2838 1.79214 5.65034 0.15831 3.6419 0.15831C1.63384 0.15831 0 1.79214 0 3.80096C0 5.8094 1.63384 7.44324 3.6419 7.44324C4.34953 7.44324 5.01023 7.23991 5.56985 6.88896L12.777 14.2162C11.8752 15.2397 11.0996 16.3742 10.4813 17.5846C9.30521 19.8883 8.70897 22.377 8.70897 24.9809C8.70897 29.1119 10.2555 32.8876 12.7987 35.7613L5.5111 43.1705C4.96446 42.8421 4.32511 42.6525 3.64228 42.6525C1.63384 42.6525 0 44.2867 0 46.2952C0 48.304 1.63384 49.9378 3.64228 49.9378C5.65034 49.9378 7.28418 48.304 7.28418 46.2952C7.28418 45.4987 7.02631 44.7617 6.59105 44.1612L13.8176 36.8145C16.7328 39.5695 20.662 41.2621 24.9791 41.2647C24.9825 41.2647 24.9856 41.2655 24.989 41.2655C24.9924 41.2655 24.9959 41.2647 24.9993 41.2647C29.3183 41.2624 33.249 39.5683 36.1649 36.8114L43.3965 44.1635C42.962 44.7632 42.7049 45.4994 42.7049 46.2952C42.7049 48.3036 44.3387 49.9378 46.3471 49.9378C48.3552 49.9378 49.989 48.304 49.989 46.2952C49.989 44.2867 48.3548 42.6529 46.3468 42.6529ZM1.46447 3.80096C1.46447 2.59972 2.44141 1.62277 3.6419 1.62277C4.84277 1.62277 5.81933 2.59972 5.81933 3.80096C5.81933 5.00183 4.84239 5.97878 3.6419 5.97878C2.44141 5.97878 1.46447 5.00183 1.46447 3.80096ZM28.9788 32.6988C29.0436 33.0978 29.4198 33.3683 29.8192 33.3035C30.2994 33.2253 30.7679 33.136 31.2253 33.0364C30.9151 33.968 30.5489 34.84 30.1293 35.6369C28.8987 37.9753 27.3552 39.3982 25.7214 39.7266V33.6761C26.1353 33.6666 26.5488 33.6498 26.957 33.6239C27.3606 33.5983 27.6669 33.2508 27.6417 32.8472C27.6162 32.4436 27.2698 32.1373 26.8647 32.1625C26.2467 32.2014 25.6157 32.2212 24.9894 32.2212C22.6216 32.2212 20.3412 31.9458 18.2877 31.4251C17.7956 29.4395 17.5358 27.2503 17.5358 24.9809C17.5358 22.7116 17.7956 20.5223 18.2877 18.5368C20.3412 18.0161 22.6216 17.7406 24.9894 17.7406C27.3572 17.7406 29.6376 18.0161 31.691 18.5368C32.1831 20.5223 32.4425 22.7116 32.4425 24.9809C32.4425 27.2488 32.1835 29.4373 31.6918 31.4217C31.0185 31.5926 30.3147 31.739 29.5838 31.8581C29.1848 31.9233 28.9139 32.2994 28.9788 32.6988ZM10.8227 29.3236C11.5795 30.035 12.5298 30.69 13.6608 31.2702C14.6992 31.8024 15.8532 32.2533 17.0922 32.6157C17.4775 33.9581 17.9669 35.2051 18.5532 36.319C19.1349 37.4241 19.7892 38.3568 20.4991 39.1045C15.8856 37.6335 12.246 33.9592 10.8227 29.3236ZM16.0805 25.7133C16.1236 27.5314 16.3273 29.2965 16.6783 30.9509C15.8409 30.6671 15.054 30.3383 14.3292 29.9667C12.0068 28.7758 10.5896 27.2873 10.2524 25.7133H16.0805ZM18.7535 33.0376C20.4838 33.4145 22.3408 33.6327 24.2569 33.6769V39.7266C22.6231 39.3978 21.0797 37.9749 19.8491 35.6369C19.4298 34.8404 19.0636 33.9687 18.7535 33.0376ZM30.1297 14.3253C30.5485 15.1218 30.9151 15.9931 31.2249 16.9243C29.4945 16.5474 27.6375 16.3292 25.7214 16.2849V10.2352C27.3552 10.5637 28.8987 11.9869 30.1297 14.3253ZM33.8982 24.2489C33.8551 22.4304 33.6514 20.6654 33.3005 19.0109C34.1378 19.2947 34.9248 19.6236 35.6496 19.9951C37.972 21.1861 39.3895 22.6746 39.7263 24.2489H33.8982ZM33.8982 25.7133H39.7256C39.2663 27.8202 36.8546 29.747 33.3008 30.9483C33.6514 29.2946 33.8551 27.5307 33.8982 25.7133ZM46.3468 1.62277C47.5476 1.62277 48.5242 2.59972 48.5242 3.80096C48.5242 5.00183 47.5476 5.97878 46.3468 5.97878C45.1463 5.97878 44.1693 5.00183 44.1693 3.80096C44.1693 2.59972 45.1463 1.62277 46.3468 1.62277ZM39.156 20.6383C38.3992 19.9272 37.449 19.2719 36.3179 18.692C35.2792 18.1595 34.1256 17.709 32.8866 17.3462C32.5013 16.0038 32.0119 14.7572 31.4255 13.6429C30.8438 12.5381 30.1892 11.6055 29.4793 10.8578C34.0932 12.3287 37.7328 16.0027 39.156 20.6383ZM19.8491 14.3253C21.0801 11.9873 22.6231 10.564 24.2569 10.2352V16.2849C22.3412 16.3292 20.4838 16.5474 18.7539 16.9243C19.0636 15.9931 19.4298 15.1218 19.8491 14.3253ZM14.3292 19.9951C15.054 19.6236 15.8409 19.2947 16.6783 19.0109C16.3273 20.6654 16.1236 22.4304 16.0805 24.2489H10.2524C10.5896 22.6746 12.0068 21.1861 14.3292 19.9951ZM3.6419 48.4734C2.44141 48.4734 1.46447 47.4964 1.46447 46.2955C1.46447 45.0943 2.44141 44.1174 3.6419 44.1174C4.84277 44.1174 5.81933 45.0943 5.81933 46.2955C5.81933 47.4964 4.84239 48.4734 3.6419 48.4734ZM29.4793 39.1045C30.1892 38.3568 30.8438 37.4241 31.4255 36.319C32.0119 35.2047 32.5013 33.9573 32.887 32.6149C35.5439 31.8382 37.7007 30.6877 39.161 29.306C37.7419 33.9497 34.0989 37.6316 29.4793 39.1045ZM46.3468 48.4734C45.1463 48.4734 44.1693 47.4964 44.1693 46.2955C44.1693 45.0943 45.1463 44.1174 46.3468 44.1174C47.5476 44.1174 48.5242 45.0943 48.5242 46.2955C48.5242 47.4964 47.5476 48.4734 46.3468 48.4734Z" fill="#A5B9D8"/>
</svg>
