<svg width="53" height="50" viewBox="0 0 53 50" fill="none" xmlns="http://www.w3.org/2000/svg">
<path d="M49.5281 0H2.90478C1.30034 0 0 1.30034 0 2.90478V11.9547C0 12.6678 0.262164 13.3075 0.692114 13.8108C0.262164 14.3247 0 14.9643 0 15.6774V24.7274C0 25.4404 0.262164 26.0801 0.692114 26.5835C0.262164 27.0973 0 27.737 0 28.4501V37.5C0 39.1044 1.30034 40.4048 2.90478 40.4048H25.1678V42.8482C23.9933 43.2047 23.081 44.117 22.7244 45.2915H9.51133C8.93456 45.2915 8.46267 45.7634 8.46267 46.3402C8.46267 46.9169 8.93456 47.3888 9.51133 47.3888H22.7244C23.1753 48.8884 24.5596 50 26.2164 50C27.8628 50 29.2471 48.8989 29.7085 47.3888H42.9216C43.4983 47.3888 43.9702 46.9169 43.9702 46.3402C43.9702 45.7634 43.4983 45.2915 42.9216 45.2915H29.7085C29.3519 44.117 28.4396 43.2047 27.2651 42.8482V40.4153H49.5281C51.1325 40.4153 52.4329 39.1149 52.4329 37.5105V28.4606C52.4329 27.7475 52.1707 27.1078 51.7408 26.6044C52.1707 26.1011 52.4329 25.4509 52.4329 24.7483V15.6984C52.4329 14.9853 52.1707 14.3456 51.7408 13.8423C52.1707 13.3389 52.4329 12.6888 52.4329 11.9862V2.90478C52.4329 1.30034 51.1325 0 49.5281 0ZM27.7789 46.3402C27.7789 47.2001 27.0763 47.9027 26.2164 47.9027C25.3565 47.9027 24.6539 47.2001 24.6539 46.3402C24.6539 45.4803 25.3565 44.7777 26.2164 44.7777C27.0763 44.7777 27.7789 45.4803 27.7789 46.3402ZM2.09732 2.90478C2.09732 2.45386 2.46435 2.09732 2.90478 2.09732H49.5176C49.9685 2.09732 50.3251 2.46435 50.3251 2.90478V11.9547C50.3251 12.4056 49.9581 12.7622 49.5176 12.7622H2.90478C2.46435 12.7727 2.09732 12.4056 2.09732 11.9547V2.90478ZM50.3356 15.6774V24.7274C50.3356 25.1783 49.9685 25.5348 49.5281 25.5348H2.90478C2.46435 25.5453 2.09732 25.1783 2.09732 24.7274V15.6774C2.09732 15.2265 2.46435 14.87 2.90478 14.87H49.5176C49.9685 14.87 50.3356 15.2265 50.3356 15.6774ZM50.3356 37.5C50.3356 37.9509 49.9685 38.3075 49.5281 38.3075H2.90478C2.46435 38.318 2.09732 37.9509 2.09732 37.5V28.4501C2.09732 27.9992 2.46435 27.6426 2.90478 27.6426H49.5176C49.9685 27.6426 50.3251 28.0096 50.3251 28.4501V37.5H50.3356Z" fill="#A5B9D8"/>
<path d="M8.87164 10.6334C10.6439 10.6334 12.0805 9.19673 12.0805 7.4245C12.0805 5.65226 10.6439 4.2156 8.87164 4.2156C7.09941 4.2156 5.66275 5.65226 5.66275 7.4245C5.66275 9.19673 7.09941 10.6334 8.87164 10.6334ZM8.87164 6.32341C9.47987 6.32341 9.98322 6.81627 9.98322 7.43498C9.98322 8.05369 9.49035 8.54656 8.87164 8.54656C8.25294 8.54656 7.76007 8.05369 7.76007 7.43498C7.76007 6.81627 8.25294 6.32341 8.87164 6.32341Z" fill="#A5B9D8"/>
<path d="M17.1351 10.6334C18.9073 10.6334 20.344 9.19673 20.344 7.4245C20.344 5.65226 18.9073 4.2156 17.1351 4.2156C15.3628 4.2156 13.9262 5.65226 13.9262 7.4245C13.9367 9.19673 15.3733 10.6334 17.1351 10.6334ZM17.1351 6.32341C17.7433 6.32341 18.2466 6.81627 18.2466 7.43498C18.2466 8.05369 17.7538 8.54656 17.1351 8.54656C16.5164 8.54656 16.0235 8.05369 16.0235 7.43498C16.0235 6.81627 16.5268 6.32341 17.1351 6.32341Z" fill="#A5B9D8"/>
<path d="M46.2039 9.9203C46.7806 9.9203 47.2525 9.44841 47.2525 8.87164V5.99832C47.2525 5.42156 46.7806 4.94967 46.2039 4.94967C45.6271 4.94967 45.1552 5.42156 45.1552 5.99832V8.87164C45.1552 9.44841 45.6271 9.9203 46.2039 9.9203Z" fill="#A5B9D8"/>
<path d="M41.8519 9.9203C42.4287 9.9203 42.9006 9.44841 42.9006 8.87164V5.99832C42.9006 5.42156 42.4287 4.94967 41.8519 4.94967C41.2752 4.94967 40.8033 5.42156 40.8033 5.99832V8.87164C40.8033 9.44841 41.2752 9.9203 41.8519 9.9203Z" fill="#A5B9D8"/>
<path d="M37.5 9.9203C38.0768 9.9203 38.5487 9.44841 38.5487 8.87164V5.99832C38.5487 5.42156 38.0768 4.94967 37.5 4.94967C36.9232 4.94967 36.4513 5.42156 36.4513 5.99832V8.87164C36.4513 9.44841 36.9232 9.9203 37.5 9.9203Z" fill="#A5B9D8"/>
<path d="M8.87164 23.406C10.6439 23.406 12.0805 21.9694 12.0805 20.1971C12.0805 18.4249 10.6439 16.9883 8.87164 16.9883C7.09941 16.9883 5.66275 18.4249 5.66275 20.1971C5.66275 21.9694 7.09941 23.406 8.87164 23.406ZM8.87164 19.0961C9.47987 19.0961 9.98322 19.5889 9.98322 20.2076C9.98322 20.8263 9.49035 21.3192 8.87164 21.3192C8.25294 21.3192 7.76007 20.8263 7.76007 20.2076C7.76007 19.5889 8.25294 19.0961 8.87164 19.0961Z" fill="#A5B9D8"/>
<path d="M17.1351 23.406C18.9073 23.406 20.344 21.9694 20.344 20.1971C20.344 18.4249 18.9073 16.9883 17.1351 16.9883C15.3628 16.9883 13.9262 18.4249 13.9262 20.1971C13.9367 21.9694 15.3733 23.406 17.1351 23.406ZM17.1351 19.0961C17.7433 19.0961 18.2466 19.5889 18.2466 20.2076C18.2466 20.8263 17.7538 21.3192 17.1351 21.3192C16.5164 21.3192 16.0235 20.8263 16.0235 20.2076C16.0235 19.5889 16.5268 19.0961 17.1351 19.0961Z" fill="#A5B9D8"/>
<path d="M46.2039 22.693C46.7806 22.693 47.2525 22.2211 47.2525 21.6443V18.771C47.2525 18.1942 46.7806 17.7223 46.2039 17.7223C45.6271 17.7223 45.1552 18.1942 45.1552 18.771V21.6443C45.1552 22.2211 45.6271 22.693 46.2039 22.693Z" fill="#A5B9D8"/>
<path d="M41.8519 22.693C42.4287 22.693 42.9006 22.2211 42.9006 21.6443V18.771C42.9006 18.1942 42.4287 17.7223 41.8519 17.7223C41.2752 17.7223 40.8033 18.1942 40.8033 18.771V21.6443C40.8033 22.2211 41.2752 22.693 41.8519 22.693Z" fill="#A5B9D8"/>
<path d="M37.5 22.693C38.0768 22.693 38.5487 22.2211 38.5487 21.6443V18.771C38.5487 18.1942 38.0768 17.7223 37.5 17.7223C36.9232 17.7223 36.4513 18.1942 36.4513 18.771V21.6443C36.4513 22.2211 36.9232 22.693 37.5 22.693Z" fill="#A5B9D8"/>
<path d="M8.87164 29.7714C7.09941 29.7714 5.66275 31.2081 5.66275 32.9803C5.66275 34.7525 7.09941 36.1892 8.87164 36.1892C10.6439 36.1892 12.0805 34.7525 12.0805 32.9803C12.0805 31.2081 10.6334 29.7714 8.87164 29.7714ZM8.87164 34.0814C8.26342 34.0814 7.76007 33.5885 7.76007 32.9698C7.76007 32.3511 8.25294 31.8582 8.87164 31.8582C9.49035 31.8582 9.98322 32.3511 9.98322 32.9698C9.98322 33.5885 9.47987 34.0814 8.87164 34.0814Z" fill="#A5B9D8"/>
<path d="M17.1351 29.7714C15.3628 29.7714 13.9262 31.2081 13.9262 32.9803C13.9262 34.7525 15.3628 36.1892 17.1351 36.1892C18.9073 36.1892 20.344 34.7525 20.344 32.9803C20.344 31.2081 18.9073 29.7714 17.1351 29.7714ZM17.1351 34.0814C16.5268 34.0814 16.0235 33.5885 16.0235 32.9698C16.0235 32.3511 16.5164 31.8582 17.1351 31.8582C17.7538 31.8582 18.2466 32.3511 18.2466 32.9698C18.2466 33.5885 17.7538 34.0814 17.1351 34.0814Z" fill="#A5B9D8"/>
<path d="M46.2039 30.4845C45.6271 30.4845 45.1552 30.9564 45.1552 31.5331V34.4065C45.1552 34.9832 45.6271 35.4551 46.2039 35.4551C46.7806 35.4551 47.2525 34.9832 47.2525 34.4065V31.5331C47.2525 30.9564 46.7806 30.4845 46.2039 30.4845Z" fill="#A5B9D8"/>
<path d="M41.8519 30.4845C41.2752 30.4845 40.8033 30.9564 40.8033 31.5331V34.4065C40.8033 34.9832 41.2752 35.4551 41.8519 35.4551C42.4287 35.4551 42.9006 34.9832 42.9006 34.4065V31.5331C42.9006 30.9564 42.4287 30.4845 41.8519 30.4845Z" fill="#A5B9D8"/>
<path d="M37.5 30.4845C36.9232 30.4845 36.4513 30.9564 36.4513 31.5331V34.4065C36.4513 34.9832 36.9232 35.4551 37.5 35.4551C38.0768 35.4551 38.5487 34.9832 38.5487 34.4065V31.5331C38.5487 30.9564 38.0768 30.4845 37.5 30.4845Z" fill="#A5B9D8"/>
</svg>
