<svg width="50" height="50" viewBox="0 0 50 50" fill="none" xmlns="http://www.w3.org/2000/svg">
<path fill-rule="evenodd" clip-rule="evenodd" d="M41.6667 28.3331C37.0674 28.3331 33.3334 32.0672 33.3334 36.6664C33.3334 41.2656 37.0674 44.9996 41.6667 44.9996C46.2661 44.9996 50.0001 41.2656 50.0001 36.6664C50.0001 32.0672 46.2661 28.3331 41.6667 28.3331ZM41.6667 29.9997C45.3461 29.9997 48.3332 32.9869 48.3332 36.6664C48.3332 40.3458 45.3461 43.3331 41.6667 43.3331C37.9874 43.3331 35.0002 40.3458 35.0002 36.6664C35.0002 32.9869 37.9874 29.9997 41.6667 29.9997Z" fill="#A5B9D8"/>
<path fill-rule="evenodd" clip-rule="evenodd" d="M41.6667 28.3331C41.0215 28.3331 40.3534 28.7193 39.8173 29.5536C38.9593 30.8882 38.3334 33.5694 38.3334 36.6664C38.3334 39.7634 38.9593 42.4445 39.8173 43.7792C40.3534 44.6135 41.0215 44.9996 41.6667 44.9996C42.3119 44.9996 42.9801 44.6135 43.5162 43.7792C44.3741 42.4445 45.0001 39.7634 45.0001 36.6664C45.0001 33.5694 44.3741 30.8882 43.5162 29.5536C42.9801 28.7193 42.3119 28.3331 41.6667 28.3331ZM41.6667 29.9997C41.7434 29.9997 41.7984 30.0693 41.8675 30.1386C42.0575 30.3284 42.2258 30.6109 42.3842 30.9591C42.9692 32.2459 43.3334 34.3254 43.3334 36.6664C43.3334 39.0073 42.9692 41.0869 42.3842 42.3737C42.2258 42.7219 42.0575 43.0043 41.8675 43.1942C41.7984 43.2635 41.7434 43.3331 41.6667 43.3331C41.5901 43.3331 41.5351 43.2635 41.466 43.1942C41.276 43.0043 41.1077 42.7219 40.9492 42.3737C40.3642 41.0869 40.0001 39.0073 40.0001 36.6664C40.0001 34.3254 40.3642 32.2459 40.9492 30.9591C41.1077 30.6109 41.276 30.3284 41.466 30.1386C41.5351 30.0693 41.5901 29.9997 41.6667 29.9997Z" fill="#A5B9D8"/>
<path fill-rule="evenodd" clip-rule="evenodd" d="M25.0002 33.3332C23.1605 33.3332 21.6669 34.8268 21.6669 36.6664C21.6669 38.5061 23.1605 39.9997 25.0002 39.9997C26.8399 39.9997 28.3335 38.5061 28.3335 36.6664C28.3335 34.8268 26.8399 33.3332 25.0002 33.3332ZM25.0002 34.9997C25.9201 34.9997 26.6668 35.7466 26.6668 36.6664C26.6668 37.5863 25.9201 38.3331 25.0002 38.3331C24.0803 38.3331 23.3335 37.5863 23.3335 36.6664C23.3335 35.7466 24.0803 34.9997 25.0002 34.9997Z" fill="#A5B9D8"/>
<path fill-rule="evenodd" clip-rule="evenodd" d="M16.6673 29.9998C16.6673 29.5398 16.2938 29.1663 15.8336 29.1663H0.833679C0.373419 29.1663 0 29.5398 0 29.9998V39.9997C0 40.4597 0.373419 40.8332 0.833679 40.8332H15.8336C16.2938 40.8332 16.6673 40.4597 16.6673 39.9997V29.9998ZM14.9999 30.8333V39.1662H1.66736V30.8333H14.9999Z" fill="#A5B9D8"/>
<path fill-rule="evenodd" clip-rule="evenodd" d="M6.66697 39.9997C6.66697 40.0602 6.62065 40.1249 6.57943 40.2047C6.48539 40.3874 6.35083 40.5854 6.19575 40.7902C5.65908 41.4995 4.89032 42.2645 4.41102 42.7437L5.58961 43.9224C6.20399 43.3079 7.24346 42.2589 7.81485 41.3862C8.15713 40.8637 8.33362 40.3677 8.33362 39.9997H6.66697Z" fill="#A5B9D8"/>
<path fill-rule="evenodd" clip-rule="evenodd" d="M12.2562 42.7437C11.7769 42.2645 11.0082 41.4995 10.4715 40.7902C10.3164 40.5854 10.1819 40.3874 10.0878 40.2047C10.0466 40.1249 10.0003 40.0602 10.0003 39.9997H8.33362C8.33362 40.3677 8.51011 40.8637 8.85239 41.3862C9.42379 42.2589 10.4633 43.3079 11.0776 43.9224L12.2562 42.7437Z" fill="#A5B9D8"/>
<path fill-rule="evenodd" clip-rule="evenodd" d="M2.50038 44.1659H14.167C14.627 44.1659 15.0003 43.7926 15.0003 43.3326C15.0003 42.8726 14.627 42.4993 14.167 42.4993H2.50038C2.04038 42.4993 1.66705 42.8726 1.66705 43.3326C1.66705 43.7926 2.04038 44.1659 2.50038 44.1659Z" fill="#A5B9D8"/>
<path fill-rule="evenodd" clip-rule="evenodd" d="M15.8334 35.8326H22.5V37.4993H15.8334V35.8326Z" fill="#A5B9D8"/>
<path fill-rule="evenodd" clip-rule="evenodd" d="M25.8339 49.1663V45.833C25.8339 45.3731 25.4606 44.9996 25.0006 44.9996C24.5406 44.9996 24.1673 45.3731 24.1673 45.833V49.1663C24.1673 49.6262 24.5406 49.9996 25.0006 49.9996C25.4606 49.9996 25.8339 49.6262 25.8339 49.1663Z" fill="#A5B9D8"/>
<path fill-rule="evenodd" clip-rule="evenodd" d="M31.6667 48.333H18.3335C17.8735 48.333 17.5001 48.7063 17.5001 49.1663C17.5001 49.6263 17.8735 49.9997 18.3335 49.9997H31.6667C32.1267 49.9997 32.5 49.6263 32.5 49.1663C32.5 48.7063 32.1267 48.333 31.6667 48.333Z" fill="#A5B9D8"/>
<path fill-rule="evenodd" clip-rule="evenodd" d="M24.1675 34.1668V27.5002H25.8342V34.1668H24.1675Z" fill="#A5B9D8"/>
<path fill-rule="evenodd" clip-rule="evenodd" d="M27.5 35.8326H34.1666V37.4993H27.5V35.8326Z" fill="#A5B9D8"/>
<path fill-rule="evenodd" clip-rule="evenodd" d="M34.9999 13.3329H41.6665V14.9995H34.9999V13.3329Z" fill="#A5B9D8"/>
<path fill-rule="evenodd" clip-rule="evenodd" d="M15.0001 13.3329H8.33351V14.9995H15.0001V13.3329Z" fill="#A5B9D8"/>
<path fill-rule="evenodd" clip-rule="evenodd" d="M35.0001 9.99992H40C40.4603 9.99992 40.8334 9.62659 40.8334 9.1666V5.83329H45.8333V4.16663H40C39.5398 4.16663 39.1667 4.53996 39.1667 4.99996V8.33327H35.0001V9.99992Z" fill="#A5B9D8"/>
<path fill-rule="evenodd" clip-rule="evenodd" d="M15.0003 8.33327H10.8337V4.99996C10.8337 4.53996 10.4606 4.16663 10.0003 4.16663H4.16703V5.83329H9.167V9.1666C9.167 9.62659 9.54009 9.99992 10.0003 9.99992H15.0003V8.33327Z" fill="#A5B9D8"/>
<path fill-rule="evenodd" clip-rule="evenodd" d="M35.0001 19.9999H39.1667V23.3332C39.1667 23.7932 39.5398 24.1665 40 24.1665H45.8333V22.4999H40.8334V19.1665C40.8334 18.7065 40.4603 18.3332 40 18.3332H35.0001V19.9999Z" fill="#A5B9D8"/>
<path fill-rule="evenodd" clip-rule="evenodd" d="M15.0003 18.3332H10.0003C9.54009 18.3332 9.167 18.7065 9.167 19.1665V22.4999H4.16703V24.1665H10.0003C10.4606 24.1665 10.8337 23.7932 10.8337 23.3332V19.9999H15.0003V18.3332Z" fill="#A5B9D8"/>
<path fill-rule="evenodd" clip-rule="evenodd" d="M35.0001 34.9998H48.3333C48.7933 34.9998 49.1666 34.6264 49.1666 34.1664C49.1666 33.7064 48.7933 33.3331 48.3333 33.3331H35.0001C34.5401 33.3331 34.1668 33.7064 34.1668 34.1664C34.1668 34.6264 34.5401 34.9998 35.0001 34.9998Z" fill="#A5B9D8"/>
<path fill-rule="evenodd" clip-rule="evenodd" d="M35.0001 39.9997H48.3333C48.7933 39.9997 49.1666 39.6264 49.1666 39.1664C49.1666 38.7064 48.7933 38.3331 48.3333 38.3331H35.0001C34.5401 38.3331 34.1668 38.7064 34.1668 39.1664C34.1668 39.6264 34.5401 39.9997 35.0001 39.9997Z" fill="#A5B9D8"/>
<path fill-rule="evenodd" clip-rule="evenodd" d="M35.8338 3.58398C35.8338 3.12265 35.4601 2.75065 35.0001 2.75065C33.8233 2.75065 32.8338 1.91199 32.8338 0.833328C32.8338 0.373331 32.4601 0 32.0001 0H18.0002C17.5402 0 17.1665 0.373331 17.1665 0.833328C17.1665 1.91199 16.1771 2.75065 15.0002 2.75065C14.5402 2.75065 14.1666 3.12265 14.1666 3.58398V18.3332C14.1666 20.5825 15.8687 22.7132 18.0034 24.3998C20.9728 26.7452 24.6833 28.2705 24.6833 28.2705C24.8865 28.3545 25.1138 28.3545 25.317 28.2705C25.317 28.2705 29.0275 26.7452 31.997 24.3998C34.1317 22.7132 35.8338 20.5825 35.8338 18.3332V3.58398ZM34.1664 4.33197V18.3332C34.1664 20.1305 32.6696 21.7439 30.9633 23.0918C28.677 24.8985 25.9223 26.1865 25.0012 26.5932C24.0791 26.1865 21.3233 24.8985 19.0371 23.0918C17.3307 21.7439 15.8339 20.1305 15.8339 18.3332V4.33197C17.2686 4.03464 18.3907 2.98531 18.7286 1.66666H31.2717C31.6096 2.98531 32.7317 4.03464 34.1664 4.33197Z" fill="#A5B9D8"/>
<path fill-rule="evenodd" clip-rule="evenodd" d="M30.8333 12.4999C30.8333 12.0396 30.4602 11.6666 30.0002 11.6666H20.0002C19.5402 11.6666 19.1671 12.0396 19.1671 12.4999V17.4999C19.1671 18.8795 20.2871 19.9999 21.6671 19.9999H28.3333C29.7133 19.9999 30.8333 18.8795 30.8333 17.4999V12.4999ZM29.167 13.3332V17.4999C29.167 17.9599 28.7933 18.3332 28.3333 18.3332H21.6671C21.2071 18.3332 20.8334 17.9599 20.8334 17.4999V13.3332H29.167Z" fill="#A5B9D8"/>
<path fill-rule="evenodd" clip-rule="evenodd" d="M28.3336 12.4999V8.33328C28.3336 6.49362 26.8399 4.99997 25.0002 4.99997C23.1605 4.99997 21.6668 6.49362 21.6668 8.33328V12.4999H23.3336V8.33328C23.3336 7.41328 24.0805 6.66662 25.0002 6.66662C25.9199 6.66662 26.6668 7.41328 26.6668 8.33328V12.4999H28.3336Z" fill="#A5B9D8"/>
<path fill-rule="evenodd" clip-rule="evenodd" d="M47.5 2.50002C46.1202 2.50002 45 3.62023 45 5C45 6.37978 46.1202 7.49999 47.5 7.49999C48.8798 7.49999 50 6.37978 50 5C50 3.62023 48.8798 2.50002 47.5 2.50002ZM47.5 4.16668C47.9599 4.16668 48.3333 4.54008 48.3333 5C48.3333 5.45993 47.9599 5.83333 47.5 5.83333C47.0401 5.83333 46.6667 5.45993 46.6667 5C46.6667 4.54008 47.0401 4.16668 47.5 4.16668Z" fill="#A5B9D8"/>
<path fill-rule="evenodd" clip-rule="evenodd" d="M2.50033 2.50002C1.12055 2.50002 0.000348548 3.62023 0.000348548 5C0.000348548 6.37978 1.12055 7.49999 2.50033 7.49999C3.88011 7.49999 5.00031 6.37978 5.00031 5C5.00031 3.62023 3.88011 2.50002 2.50033 2.50002ZM2.50033 4.16668C2.96026 4.16668 3.33366 4.54008 3.33366 5C3.33366 5.45993 2.96026 5.83333 2.50033 5.83333C2.0404 5.83333 1.667 5.45993 1.667 5C1.667 4.54008 2.0404 4.16668 2.50033 4.16668Z" fill="#A5B9D8"/>
<path fill-rule="evenodd" clip-rule="evenodd" d="M43.3334 11.6666C41.9536 11.6666 40.8334 12.7868 40.8334 14.1666C40.8334 15.5464 41.9536 16.6666 43.3334 16.6666C44.7132 16.6666 45.8334 15.5464 45.8334 14.1666C45.8334 12.7868 44.7132 11.6666 43.3334 11.6666ZM43.3334 13.3333C43.7933 13.3333 44.1667 13.7067 44.1667 14.1666C44.1667 14.6265 43.7933 14.9999 43.3334 14.9999C42.8735 14.9999 42.5001 14.6265 42.5001 14.1666C42.5001 13.7067 42.8735 13.3333 43.3334 13.3333Z" fill="#A5B9D8"/>
<path fill-rule="evenodd" clip-rule="evenodd" d="M6.66697 11.6666C5.28719 11.6666 4.16699 12.7868 4.16699 14.1666C4.16699 15.5464 5.28719 16.6666 6.66697 16.6666C8.04675 16.6666 9.16695 15.5464 9.16695 14.1666C9.16695 12.7868 8.04675 11.6666 6.66697 11.6666ZM6.66697 13.3333C7.1269 13.3333 7.5003 13.7067 7.5003 14.1666C7.5003 14.6265 7.1269 14.9999 6.66697 14.9999C6.20704 14.9999 5.83364 14.6265 5.83364 14.1666C5.83364 13.7067 6.20704 13.3333 6.66697 13.3333Z" fill="#A5B9D8"/>
<path fill-rule="evenodd" clip-rule="evenodd" d="M47.5 20.8332C46.1202 20.8332 45 21.9534 45 23.3332C45 24.713 46.1202 25.8332 47.5 25.8332C48.8798 25.8332 50 24.713 50 23.3332C50 21.9534 48.8798 20.8332 47.5 20.8332ZM47.5 22.4999C47.9599 22.4999 48.3333 22.8733 48.3333 23.3332C48.3333 23.7931 47.9599 24.1665 47.5 24.1665C47.0401 24.1665 46.6667 23.7931 46.6667 23.3332C46.6667 22.8733 47.0401 22.4999 47.5 22.4999Z" fill="#A5B9D8"/>
<path fill-rule="evenodd" clip-rule="evenodd" d="M2.50033 20.8332C1.12055 20.8332 0.000348548 21.9534 0.000348548 23.3332C0.000348548 24.713 1.12055 25.8332 2.50033 25.8332C3.88011 25.8332 5.00031 24.713 5.00031 23.3332C5.00031 21.9534 3.88011 20.8332 2.50033 20.8332ZM2.50033 22.4999C2.96026 22.4999 3.33366 22.8733 3.33366 23.3332C3.33366 23.7931 2.96026 24.1665 2.50033 24.1665C2.0404 24.1665 1.667 23.7931 1.667 23.3332C1.667 22.8733 2.0404 22.4999 2.50033 22.4999Z" fill="#A5B9D8"/>
<path d="M25 43.3334C25.4602 43.3334 25.8333 42.9603 25.8333 42.5001C25.8333 42.0398 25.4602 41.6667 25 41.6667C24.5398 41.6667 24.1667 42.0398 24.1667 42.5001C24.1667 42.9603 24.5398 43.3334 25 43.3334Z" fill="#A5B9D8"/>
<path d="M21.6667 43.3334C22.1269 43.3334 22.5 42.9603 22.5 42.5001C22.5 42.0398 22.1269 41.6667 21.6667 41.6667C21.2065 41.6667 20.8334 42.0398 20.8334 42.5001C20.8334 42.9603 21.2065 43.3334 21.6667 43.3334Z" fill="#A5B9D8"/>
<path d="M15.0001 50C15.4603 50 15.8334 49.6269 15.8334 49.1667C15.8334 48.7064 15.4603 48.3333 15.0001 48.3333C14.5399 48.3333 14.1668 48.7064 14.1668 49.1667C14.1668 49.6269 14.5399 50 15.0001 50Z" fill="#A5B9D8"/>
<path d="M34.5833 48.3333C34.123 48.3333 33.7499 48.7064 33.7499 49.1667C33.7499 49.6269 34.123 50 34.5833 50C35.0435 50 35.4166 49.6269 35.4166 49.1667C35.4166 48.7064 35.0435 48.3333 34.5833 48.3333Z" fill="#A5B9D8"/>
<path d="M28.3333 43.3334C28.7935 43.3334 29.1666 42.9603 29.1666 42.5001C29.1666 42.0398 28.7935 41.6667 28.3333 41.6667C27.8731 41.6667 27.5 42.0398 27.5 42.5001C27.5 42.9603 27.8731 43.3334 28.3333 43.3334Z" fill="#A5B9D8"/>
</svg>
