<svg width="191" height="185" viewBox="0 0 191 185" fill="none" xmlns="http://www.w3.org/2000/svg">
<rect width="191" height="185" rx="92.5" fill="#F0F2F5"/>
<path d="M50.2678 44.1364V80.5H42.5795V51.4339H42.3665L34.0391 56.6541V49.8359L43.0412 44.1364H50.2678ZM73.1681 81.299C70.1142 81.2872 67.4863 80.5355 65.2846 79.044C63.0948 77.5526 61.408 75.3923 60.2243 72.5632C59.0524 69.7341 58.4724 66.331 58.4842 62.3537C58.4842 58.3883 59.0701 55.0088 60.242 52.2152C61.4257 49.4216 63.1125 47.2969 65.3024 45.8409C67.5041 44.3731 70.126 43.6392 73.1681 43.6392C76.2103 43.6392 78.8263 44.3731 81.0162 45.8409C83.2179 47.3087 84.9106 49.4394 86.0943 52.233C87.278 55.0147 87.8639 58.3883 87.8521 62.3537C87.8521 66.3428 87.2602 69.7519 86.0765 72.581C84.9047 75.41 83.2238 77.5703 81.0339 79.0618C78.844 80.5533 76.2221 81.299 73.1681 81.299ZM73.1681 74.9247C75.2515 74.9247 76.9146 73.8771 78.1575 71.782C79.4004 69.6868 80.0159 66.544 80.0041 62.3537C80.0041 59.5956 79.72 57.2992 79.1518 55.4645C78.5955 53.6297 77.8024 52.2507 76.7725 51.3274C75.7546 50.4041 74.5531 49.9425 73.1681 49.9425C71.0967 49.9425 69.4395 50.9782 68.1966 53.0497C66.9537 55.1212 66.3263 58.2225 66.3145 62.3537C66.3145 65.1473 66.5926 67.4792 67.149 69.3494C67.7172 71.2079 68.5162 72.6046 69.546 73.5398C70.5758 74.4631 71.7832 74.9247 73.1681 74.9247ZM107.592 81.299C104.538 81.2872 101.91 80.5355 99.7085 79.044C97.5186 77.5526 95.8318 75.3923 94.6481 72.5632C93.4762 69.7341 92.8962 66.331 92.908 62.3537C92.908 58.3883 93.494 55.0088 94.6658 52.2152C95.8496 49.4216 97.5363 47.2969 99.7262 45.8409C101.928 44.3731 104.55 43.6392 107.592 43.6392C110.634 43.6392 113.25 44.3731 115.44 45.8409C117.642 47.3087 119.334 49.4394 120.518 52.233C121.702 55.0147 122.288 58.3883 122.276 62.3537C122.276 66.3428 121.684 69.7519 120.5 72.581C119.328 75.41 117.648 77.5703 115.458 79.0618C113.268 80.5533 110.646 81.299 107.592 81.299ZM107.592 74.9247C109.675 74.9247 111.338 73.8771 112.581 71.782C113.824 69.6868 114.44 66.544 114.428 62.3537C114.428 59.5956 114.144 57.2992 113.576 55.4645C113.019 53.6297 112.226 52.2507 111.196 51.3274C110.178 50.4041 108.977 49.9425 107.592 49.9425C105.52 49.9425 103.863 50.9782 102.62 53.0497C101.377 55.1212 100.75 58.2225 100.738 62.3537C100.738 65.1473 101.016 67.4792 101.573 69.3494C102.141 71.2079 102.94 72.6046 103.97 73.5398C105 74.4631 106.207 74.9247 107.592 74.9247ZM138.624 74.9602V49.8182H144.981V74.9602H138.624ZM129.232 65.5675V59.2109H154.374V65.5675H129.232Z" fill="url(#paint0_linear_1_7412)"/>
<path d="M47.25 108.5L43.25 103.159H41.8182V108.5H40.4091V96.8636H41.8182V101.909H42.4318L47.0909 96.8636H48.7727L44.0682 101.977L48.9318 108.5H47.25ZM49.7983 108.5V107.25H50.1165C50.3778 107.25 50.5956 107.199 50.7699 107.097C50.9441 106.991 51.0843 106.807 51.1903 106.545C51.3002 106.28 51.3835 105.913 51.4403 105.443C51.5009 104.97 51.5445 104.367 51.571 103.636L51.7301 99.7727H57.5483V108.5H56.2074V101.023H53.0028L52.8665 104.136C52.8362 104.852 52.7718 105.483 52.6733 106.028C52.5786 106.57 52.4328 107.025 52.2358 107.392C52.0426 107.759 51.785 108.036 51.4631 108.222C51.1411 108.407 50.7377 108.5 50.2528 108.5H49.7983ZM61.3494 106.523L65.554 99.7727H67.0994V108.5H65.7585V101.75L61.5767 108.5H60.0085V99.7727H61.3494V106.523ZM73.2145 108.682C72.3736 108.682 71.6482 108.496 71.0384 108.125C70.4323 107.75 69.9645 107.227 69.6349 106.557C69.3092 105.883 69.1463 105.098 69.1463 104.205C69.1463 103.311 69.3092 102.523 69.6349 101.841C69.9645 101.155 70.4228 100.621 71.0099 100.239C71.6009 99.8523 72.2902 99.6591 73.0781 99.6591C73.5327 99.6591 73.9815 99.7348 74.4247 99.8864C74.8679 100.038 75.2713 100.284 75.6349 100.625C75.9986 100.962 76.2884 101.409 76.5043 101.966C76.7202 102.523 76.8281 103.208 76.8281 104.023V104.591H70.1009V103.432H75.4645C75.4645 102.939 75.366 102.5 75.169 102.114C74.9759 101.727 74.6993 101.422 74.3395 101.199C73.9834 100.975 73.563 100.864 73.0781 100.864C72.544 100.864 72.0819 100.996 71.6918 101.261C71.3054 101.523 71.008 101.864 70.7997 102.284C70.5914 102.705 70.4872 103.155 70.4872 103.636V104.409C70.4872 105.068 70.6009 105.627 70.8281 106.085C71.0592 106.54 71.3793 106.886 71.7884 107.125C72.1974 107.36 72.6728 107.477 73.2145 107.477C73.5668 107.477 73.8849 107.428 74.169 107.33C74.4569 107.227 74.705 107.076 74.9134 106.875C75.1217 106.67 75.2827 106.417 75.3963 106.114L76.6918 106.477C76.5554 106.917 76.3262 107.303 76.0043 107.636C75.6823 107.966 75.2846 108.223 74.8111 108.409C74.3376 108.591 73.8054 108.682 73.2145 108.682ZM84.7088 103.523V104.773H79.8906V103.523H84.7088ZM80.2088 99.7727V108.5H78.8679V99.7727H80.2088ZM85.7315 99.7727V108.5H84.3906V99.7727H85.7315ZM86.9929 101.023V99.7727H94.0838V101.023H91.2202V108.5H89.8793V101.023H86.9929ZM99.1321 108.682C98.3442 108.682 97.6529 108.494 97.0582 108.119C96.4673 107.744 96.0052 107.22 95.6719 106.545C95.3423 105.871 95.1776 105.083 95.1776 104.182C95.1776 103.273 95.3423 102.479 95.6719 101.801C96.0052 101.123 96.4673 100.597 97.0582 100.222C97.6529 99.8466 98.3442 99.6591 99.1321 99.6591C99.92 99.6591 100.609 99.8466 101.2 100.222C101.795 100.597 102.257 101.123 102.587 101.801C102.92 102.479 103.087 103.273 103.087 104.182C103.087 105.083 102.92 105.871 102.587 106.545C102.257 107.22 101.795 107.744 101.2 108.119C100.609 108.494 99.92 108.682 99.1321 108.682ZM99.1321 107.477C99.7306 107.477 100.223 107.324 100.609 107.017C100.996 106.71 101.282 106.307 101.467 105.807C101.653 105.307 101.746 104.765 101.746 104.182C101.746 103.598 101.653 103.055 101.467 102.551C101.282 102.047 100.996 101.64 100.609 101.33C100.223 101.019 99.7306 100.864 99.1321 100.864C98.5336 100.864 98.0412 101.019 97.6548 101.33C97.2685 101.64 96.9825 102.047 96.7969 102.551C96.6113 103.055 96.5185 103.598 96.5185 104.182C96.5185 104.765 96.6113 105.307 96.7969 105.807C96.9825 106.307 97.2685 106.71 97.6548 107.017C98.0412 107.324 98.5336 107.477 99.1321 107.477ZM105.134 108.5V99.7727H108.702C109.641 99.7727 110.387 99.9848 110.94 100.409C111.493 100.833 111.77 101.394 111.77 102.091C111.77 102.621 111.613 103.032 111.298 103.324C110.984 103.612 110.58 103.807 110.088 103.909C110.41 103.955 110.723 104.068 111.026 104.25C111.332 104.432 111.586 104.682 111.787 105C111.988 105.314 112.088 105.701 112.088 106.159C112.088 106.606 111.974 107.006 111.747 107.358C111.52 107.71 111.194 107.989 110.77 108.193C110.346 108.398 109.838 108.5 109.247 108.5H105.134ZM106.406 107.273H109.247C109.709 107.273 110.071 107.163 110.332 106.943C110.594 106.723 110.724 106.424 110.724 106.045C110.724 105.595 110.594 105.241 110.332 104.983C110.071 104.722 109.709 104.591 109.247 104.591H106.406V107.273ZM106.406 103.432H108.702C109.062 103.432 109.37 103.383 109.628 103.284C109.885 103.182 110.082 103.038 110.219 102.852C110.359 102.663 110.429 102.439 110.429 102.182C110.429 101.814 110.276 101.527 109.969 101.318C109.662 101.106 109.24 101 108.702 101H106.406V103.432ZM39.2955 131V127.25H40.0227C40.2008 127.064 40.3542 126.864 40.483 126.648C40.6117 126.432 40.7235 126.176 40.8182 125.881C40.9167 125.581 41 125.218 41.0682 124.79C41.1364 124.358 41.197 123.837 41.25 123.227L41.5455 119.773H47.0909V127.25H48.4318V131H47.0909V128.5H40.6364V131H39.2955ZM41.5455 127.25H45.75V121.023H42.7955L42.5682 123.227C42.4735 124.14 42.3561 124.937 42.2159 125.619C42.0758 126.301 41.8523 126.845 41.5455 127.25ZM53.7571 128.682C52.9692 128.682 52.2779 128.494 51.6832 128.119C51.0923 127.744 50.6302 127.22 50.2969 126.545C49.9673 125.871 49.8026 125.083 49.8026 124.182C49.8026 123.273 49.9673 122.479 50.2969 121.801C50.6302 121.123 51.0923 120.597 51.6832 120.222C52.2779 119.847 52.9692 119.659 53.7571 119.659C54.545 119.659 55.2344 119.847 55.8253 120.222C56.42 120.597 56.8821 121.123 57.2116 121.801C57.545 122.479 57.7116 123.273 57.7116 124.182C57.7116 125.083 57.545 125.871 57.2116 126.545C56.8821 127.22 56.42 127.744 55.8253 128.119C55.2344 128.494 54.545 128.682 53.7571 128.682ZM53.7571 127.477C54.3556 127.477 54.848 127.324 55.2344 127.017C55.6207 126.71 55.9067 126.307 56.0923 125.807C56.2779 125.307 56.3707 124.765 56.3707 124.182C56.3707 123.598 56.2779 123.055 56.0923 122.551C55.9067 122.047 55.6207 121.64 55.2344 121.33C54.848 121.019 54.3556 120.864 53.7571 120.864C53.1586 120.864 52.6662 121.019 52.2798 121.33C51.8935 121.64 51.6075 122.047 51.4219 122.551C51.2363 123.055 51.1435 123.598 51.1435 124.182C51.1435 124.765 51.2363 125.307 51.4219 125.807C51.6075 126.307 51.8935 126.71 52.2798 127.017C52.6662 127.324 53.1586 127.477 53.7571 127.477ZM59.7585 128.5V119.773H63.3267C64.2661 119.773 65.0123 119.985 65.5653 120.409C66.1184 120.833 66.3949 121.394 66.3949 122.091C66.3949 122.621 66.2377 123.032 65.9233 123.324C65.6089 123.612 65.2055 123.807 64.7131 123.909C65.035 123.955 65.3475 124.068 65.6506 124.25C65.9574 124.432 66.2112 124.682 66.4119 125C66.6127 125.314 66.7131 125.701 66.7131 126.159C66.7131 126.606 66.5994 127.006 66.3722 127.358C66.1449 127.71 65.8191 127.989 65.3949 128.193C64.9706 128.398 64.4631 128.5 63.8722 128.5H59.7585ZM61.0312 127.273H63.8722C64.3343 127.273 64.696 127.163 64.9574 126.943C65.2188 126.723 65.3494 126.424 65.3494 126.045C65.3494 125.595 65.2188 125.241 64.9574 124.983C64.696 124.722 64.3343 124.591 63.8722 124.591H61.0312V127.273ZM61.0312 123.432H63.3267C63.6866 123.432 63.9953 123.383 64.2528 123.284C64.5104 123.182 64.7074 123.038 64.8438 122.852C64.9839 122.663 65.054 122.439 65.054 122.182C65.054 121.814 64.9006 121.527 64.5938 121.318C64.2869 121.106 63.8646 121 63.3267 121H61.0312V123.432ZM72.402 128.682C71.5611 128.682 70.8357 128.496 70.2259 128.125C69.6198 127.75 69.152 127.227 68.8224 126.557C68.4967 125.883 68.3338 125.098 68.3338 124.205C68.3338 123.311 68.4967 122.523 68.8224 121.841C69.152 121.155 69.6103 120.621 70.1974 120.239C70.7884 119.852 71.4777 119.659 72.2656 119.659C72.7202 119.659 73.169 119.735 73.6122 119.886C74.0554 120.038 74.4588 120.284 74.8224 120.625C75.1861 120.962 75.4759 121.409 75.6918 121.966C75.9077 122.523 76.0156 123.208 76.0156 124.023V124.591H69.2884V123.432H74.652C74.652 122.939 74.5535 122.5 74.3565 122.114C74.1634 121.727 73.8868 121.422 73.527 121.199C73.1709 120.975 72.7505 120.864 72.2656 120.864C71.7315 120.864 71.2694 120.996 70.8793 121.261C70.4929 121.523 70.1955 121.864 69.9872 122.284C69.7789 122.705 69.6747 123.155 69.6747 123.636V124.409C69.6747 125.068 69.7884 125.627 70.0156 126.085C70.2467 126.54 70.5668 126.886 70.9759 127.125C71.3849 127.36 71.8603 127.477 72.402 127.477C72.7543 127.477 73.0724 127.428 73.3565 127.33C73.6444 127.227 73.8925 127.076 74.1009 126.875C74.3092 126.67 74.4702 126.417 74.5838 126.114L75.8793 126.477C75.7429 126.917 75.5137 127.303 75.1918 127.636C74.8698 127.966 74.4721 128.223 73.9986 128.409C73.5251 128.591 72.9929 128.682 72.402 128.682ZM78.0554 131.773V119.773H79.3509V121.159H79.5099C79.6084 121.008 79.7448 120.814 79.919 120.58C80.0971 120.341 80.3509 120.129 80.6804 119.943C81.0137 119.754 81.4645 119.659 82.0327 119.659C82.7675 119.659 83.4152 119.843 83.9759 120.21C84.5365 120.578 84.974 121.098 85.2884 121.773C85.6027 122.447 85.7599 123.242 85.7599 124.159C85.7599 125.083 85.6027 125.884 85.2884 126.562C84.974 127.237 84.5384 127.759 83.9815 128.131C83.4247 128.498 82.7827 128.682 82.0554 128.682C81.4948 128.682 81.0459 128.589 80.7088 128.403C80.3717 128.214 80.1122 128 79.9304 127.761C79.7486 127.519 79.6084 127.318 79.5099 127.159H79.3963V131.773H78.0554ZM79.3736 124.136C79.3736 124.795 79.4702 125.377 79.6634 125.881C79.8565 126.381 80.1387 126.773 80.5099 127.057C80.8812 127.337 81.3357 127.477 81.8736 127.477C82.4342 127.477 82.902 127.33 83.277 127.034C83.6558 126.735 83.9399 126.333 84.1293 125.83C84.3224 125.322 84.419 124.758 84.419 124.136C84.419 123.523 84.3243 122.97 84.1349 122.477C83.9493 121.981 83.6671 121.589 83.2884 121.301C82.9134 121.009 82.4418 120.864 81.8736 120.864C81.3281 120.864 80.8698 121.002 80.4986 121.278C80.1274 121.551 79.8471 121.934 79.6577 122.426C79.4683 122.915 79.3736 123.485 79.3736 124.136ZM93.0554 128.5V121H90.7372C90.2145 121 89.8035 121.121 89.5043 121.364C89.205 121.606 89.0554 121.939 89.0554 122.364C89.0554 122.78 89.1899 123.108 89.4588 123.347C89.7315 123.585 90.1046 123.705 90.5781 123.705H93.3963V124.955H90.5781C89.9872 124.955 89.4777 124.85 89.0497 124.642C88.6217 124.434 88.2921 124.136 88.0611 123.75C87.83 123.36 87.7145 122.898 87.7145 122.364C87.7145 121.826 87.8357 121.364 88.0781 120.977C88.3205 120.591 88.6671 120.294 89.1179 120.085C89.5724 119.877 90.1122 119.773 90.7372 119.773H94.3281V128.5H93.0554ZM87.2372 128.5L89.7145 124.159H91.169L88.6918 128.5H87.2372ZM100.972 123.591V124.841H96.358V123.591H100.972ZM97.4943 119.773V128.5H96.1534V119.773H97.4943ZM103.653 128.682C102.866 128.682 102.174 128.494 101.58 128.119C100.989 127.744 100.527 127.22 100.193 126.545C99.8636 125.871 99.6989 125.083 99.6989 124.182C99.6989 123.273 99.8636 122.479 100.193 121.801C100.527 121.123 100.989 120.597 101.58 120.222C102.174 119.847 102.866 119.659 103.653 119.659C104.441 119.659 105.131 119.847 105.722 120.222C106.316 120.597 106.778 121.123 107.108 121.801C107.441 122.479 107.608 123.273 107.608 124.182C107.608 125.083 107.441 125.871 107.108 126.545C106.778 127.22 106.316 127.744 105.722 128.119C105.131 128.494 104.441 128.682 103.653 128.682ZM103.653 127.477C104.252 127.477 104.744 127.324 105.131 127.017C105.517 126.71 105.803 126.307 105.989 125.807C106.174 125.307 106.267 124.765 106.267 124.182C106.267 123.598 106.174 123.055 105.989 122.551C105.803 122.047 105.517 121.64 105.131 121.33C104.744 121.019 104.252 120.864 103.653 120.864C103.055 120.864 102.563 121.019 102.176 121.33C101.79 121.64 101.504 122.047 101.318 122.551C101.133 123.055 101.04 123.598 101.04 124.182C101.04 124.765 101.133 125.307 101.318 125.807C101.504 126.307 101.79 126.71 102.176 127.017C102.563 127.324 103.055 127.477 103.653 127.477ZM108.649 121.023V119.773H115.74V121.023H112.876V128.5H111.536V121.023H108.649ZM128.037 123.523V124.773H123.219V123.523H128.037ZM123.537 119.773V128.5H122.196V119.773H123.537ZM129.06 119.773V128.5H127.719V119.773H129.06ZM134.077 128.705C133.524 128.705 133.022 128.6 132.571 128.392C132.12 128.18 131.762 127.875 131.497 127.477C131.232 127.076 131.099 126.591 131.099 126.023C131.099 125.523 131.198 125.117 131.395 124.807C131.592 124.492 131.855 124.246 132.185 124.068C132.514 123.89 132.878 123.758 133.276 123.67C133.677 123.58 134.08 123.508 134.486 123.455C135.016 123.386 135.446 123.335 135.776 123.301C136.109 123.263 136.351 123.201 136.503 123.114C136.658 123.027 136.736 122.875 136.736 122.659V122.614C136.736 122.053 136.582 121.617 136.276 121.307C135.973 120.996 135.512 120.841 134.895 120.841C134.255 120.841 133.753 120.981 133.389 121.261C133.026 121.542 132.77 121.841 132.622 122.159L131.349 121.705C131.577 121.174 131.88 120.761 132.259 120.466C132.641 120.167 133.058 119.958 133.509 119.841C133.963 119.72 134.41 119.659 134.849 119.659C135.13 119.659 135.452 119.693 135.815 119.761C136.183 119.826 136.537 119.96 136.878 120.165C137.223 120.369 137.509 120.678 137.736 121.091C137.963 121.504 138.077 122.057 138.077 122.75V128.5H136.736V127.318H136.668C136.577 127.508 136.425 127.71 136.213 127.926C136.001 128.142 135.719 128.326 135.366 128.477C135.014 128.629 134.584 128.705 134.077 128.705ZM134.281 127.5C134.812 127.5 135.259 127.396 135.622 127.188C135.99 126.979 136.266 126.71 136.452 126.381C136.641 126.051 136.736 125.705 136.736 125.341V124.114C136.679 124.182 136.554 124.244 136.361 124.301C136.171 124.354 135.952 124.402 135.702 124.443C135.455 124.481 135.215 124.515 134.98 124.545C134.749 124.572 134.562 124.595 134.418 124.614C134.069 124.659 133.743 124.733 133.44 124.835C133.141 124.934 132.899 125.083 132.713 125.284C132.531 125.481 132.44 125.75 132.44 126.091C132.44 126.557 132.613 126.909 132.957 127.148C133.306 127.383 133.747 127.5 134.281 127.5ZM145.297 126.682L148.342 119.773H149.615L145.842 128.5H144.751L141.047 119.773H142.297L145.297 126.682ZM141.865 119.773V128.5H140.524V119.773H141.865ZM148.729 128.5V119.773H150.07V128.5H148.729Z" fill="#1A2042"/>
<defs>
<linearGradient id="paint0_linear_1_7412" x1="31.5" y1="67.4254" x2="159.5" y2="67.4254" gradientUnits="userSpaceOnUse">
<stop stop-color="#A88453"/>
<stop offset="1" stop-color="#D8C197"/>
</linearGradient>
</defs>
</svg>
