<svg width="191" height="185" viewBox="0 0 191 185" fill="none" xmlns="http://www.w3.org/2000/svg">
<rect width="191" height="185" rx="92.5" fill="url(#paint0_linear_1_7415)"/>
<path d="M52.9474 75.5V69.9602L65.8913 57.9751C66.9922 56.9098 67.9155 55.951 68.6612 55.0987C69.4188 54.2464 69.9929 53.4119 70.3835 52.5952C70.7741 51.7666 70.9695 50.8729 70.9695 49.9141C70.9695 48.8487 70.7268 47.9313 70.2415 47.1619C69.7562 46.3807 69.0933 45.7829 68.2528 45.3686C67.4124 44.9425 66.4595 44.7294 65.3942 44.7294C64.2815 44.7294 63.3108 44.9543 62.4822 45.4041C61.6536 45.8539 61.0144 46.4991 60.5646 47.3395C60.1148 48.1799 59.8899 49.1802 59.8899 50.3402H52.5923C52.5923 47.9609 53.1309 45.8954 54.2081 44.1435C55.2853 42.3916 56.7945 41.0362 58.7358 40.0774C60.6771 39.1186 62.9143 38.6392 65.4474 38.6392C68.0516 38.6392 70.3184 39.1009 72.2479 40.0241C74.1892 40.9356 75.6984 42.2022 76.7756 43.8239C77.8527 45.4455 78.3913 47.304 78.3913 49.3991C78.3913 50.7723 78.1191 52.1276 77.5746 53.4652C77.0419 54.8028 76.089 56.2884 74.7159 57.9219C73.3428 59.5436 71.4074 61.4908 68.9098 63.7635L63.6009 68.9659V69.2145H78.8707V75.5H52.9474ZM98.6994 76.299C95.6454 76.2872 93.0176 75.5355 90.8159 74.044C88.626 72.5526 86.9392 70.3923 85.7555 67.5632C84.5836 64.7341 84.0036 61.331 84.0154 57.3537C84.0154 53.3883 84.6014 50.0088 85.7733 47.2152C86.957 44.4216 88.6438 42.2969 90.8336 40.8409C93.0353 39.3731 95.6573 38.6392 98.6994 38.6392C101.742 38.6392 104.358 39.3731 106.547 40.8409C108.749 42.3087 110.442 44.4394 111.626 47.233C112.809 50.0147 113.395 53.3883 113.383 57.3537C113.383 61.3428 112.791 64.7519 111.608 67.581C110.436 70.41 108.755 72.5703 106.565 74.0618C104.375 75.5533 101.753 76.299 98.6994 76.299ZM98.6994 69.9247C100.783 69.9247 102.446 68.8771 103.689 66.782C104.932 64.6868 105.547 61.544 105.535 57.3537C105.535 54.5956 105.251 52.2992 104.683 50.4645C104.127 48.6297 103.334 47.2507 102.304 46.3274C101.286 45.4041 100.084 44.9425 98.6994 44.9425C96.6279 44.9425 94.9707 45.9782 93.7278 48.0497C92.4849 50.1212 91.8575 53.2225 91.8457 57.3537C91.8457 60.1473 92.1239 62.4792 92.6802 64.3494C93.2484 66.2079 94.0474 67.6046 95.0772 68.5398C96.1071 69.4631 97.3145 69.9247 98.6994 69.9247ZM129.732 69.9602V44.8182H136.088V69.9602H129.732ZM120.339 60.5675V54.2109H145.481V60.5675H120.339Z" fill="white"/>
<path d="M50.4091 108.5V107.205H50.75C51.2348 107.205 51.6117 107.049 51.8807 106.739C52.1496 106.428 52.3428 105.926 52.4602 105.233C52.5814 104.54 52.6629 103.621 52.7045 102.477L52.9091 96.8636H60V108.5H58.5909V98.1136H54.25L54.0682 102.75C54.0227 103.97 53.911 105.008 53.733 105.864C53.5549 106.72 53.2424 107.373 52.7955 107.824C52.3485 108.275 51.697 108.5 50.8409 108.5H50.4091ZM66.2926 108.682C65.4517 108.682 64.7263 108.496 64.1165 108.125C63.5104 107.75 63.0426 107.227 62.7131 106.557C62.3873 105.883 62.2244 105.098 62.2244 104.205C62.2244 103.311 62.3873 102.523 62.7131 101.841C63.0426 101.155 63.5009 100.621 64.0881 100.239C64.679 99.8523 65.3684 99.6591 66.1562 99.6591C66.6108 99.6591 67.0597 99.7348 67.5028 99.8864C67.946 100.038 68.3494 100.284 68.7131 100.625C69.0767 100.962 69.3665 101.409 69.5824 101.966C69.7983 102.523 69.9062 103.208 69.9062 104.023V104.591H63.179V103.432H68.5426C68.5426 102.939 68.4441 102.5 68.2472 102.114C68.054 101.727 67.7775 101.422 67.4176 101.199C67.0616 100.975 66.6411 100.864 66.1562 100.864C65.6222 100.864 65.16 100.996 64.7699 101.261C64.3835 101.523 64.0862 101.864 63.8778 102.284C63.6695 102.705 63.5653 103.155 63.5653 103.636V104.409C63.5653 105.068 63.679 105.627 63.9062 106.085C64.1373 106.54 64.4574 106.886 64.8665 107.125C65.2756 107.36 65.7509 107.477 66.2926 107.477C66.6449 107.477 66.9631 107.428 67.2472 107.33C67.535 107.227 67.7831 107.076 67.9915 106.875C68.1998 106.67 68.3608 106.417 68.4744 106.114L69.7699 106.477C69.6335 106.917 69.4044 107.303 69.0824 107.636C68.7604 107.966 68.3627 108.223 67.8892 108.409C67.4157 108.591 66.8835 108.682 66.2926 108.682ZM71.1335 101.023V99.7727H78.2244V101.023H75.3608V108.5H74.0199V101.023H71.1335ZM51.2273 128.5V119.773H54.7955C55.7348 119.773 56.4811 119.985 57.0341 120.409C57.5871 120.833 57.8636 121.394 57.8636 122.091C57.8636 122.621 57.7064 123.032 57.392 123.324C57.0777 123.612 56.6742 123.807 56.1818 123.909C56.5038 123.955 56.8163 124.068 57.1193 124.25C57.4261 124.432 57.6799 124.682 57.8807 125C58.0814 125.314 58.1818 125.701 58.1818 126.159C58.1818 126.606 58.0682 127.006 57.8409 127.358C57.6136 127.71 57.2879 127.989 56.8636 128.193C56.4394 128.398 55.9318 128.5 55.3409 128.5H51.2273ZM52.5 127.273H55.3409C55.803 127.273 56.1648 127.163 56.4261 126.943C56.6875 126.723 56.8182 126.424 56.8182 126.045C56.8182 125.595 56.6875 125.241 56.4261 124.983C56.1648 124.722 55.803 124.591 55.3409 124.591H52.5V127.273ZM52.5 123.432H54.7955C55.1553 123.432 55.464 123.383 55.7216 123.284C55.9792 123.182 56.1761 123.038 56.3125 122.852C56.4527 122.663 56.5227 122.439 56.5227 122.182C56.5227 121.814 56.3693 121.527 56.0625 121.318C55.7557 121.106 55.3333 121 54.7955 121H52.5V123.432ZM68.2571 128.682C67.4692 128.682 66.7779 128.494 66.1832 128.119C65.5923 127.744 65.1302 127.22 64.7969 126.545C64.4673 125.871 64.3026 125.083 64.3026 124.182C64.3026 123.273 64.4673 122.479 64.7969 121.801C65.1302 121.123 65.5923 120.597 66.1832 120.222C66.7779 119.847 67.4692 119.659 68.2571 119.659C69.045 119.659 69.7344 119.847 70.3253 120.222C70.92 120.597 71.3821 121.123 71.7116 121.801C72.045 122.479 72.2116 123.273 72.2116 124.182C72.2116 125.083 72.045 125.871 71.7116 126.545C71.3821 127.22 70.92 127.744 70.3253 128.119C69.7344 128.494 69.045 128.682 68.2571 128.682ZM68.2571 127.477C68.8556 127.477 69.348 127.324 69.7344 127.017C70.1207 126.71 70.4067 126.307 70.5923 125.807C70.7779 125.307 70.8707 124.765 70.8707 124.182C70.8707 123.598 70.7779 123.055 70.5923 122.551C70.4067 122.047 70.1207 121.64 69.7344 121.33C69.348 121.019 68.8556 120.864 68.2571 120.864C67.6586 120.864 67.1662 121.019 66.7798 121.33C66.3935 121.64 66.1075 122.047 65.9219 122.551C65.7363 123.055 65.6435 123.598 65.6435 124.182C65.6435 124.765 65.7363 125.307 65.9219 125.807C66.1075 126.307 66.3935 126.71 66.7798 127.017C67.1662 127.324 67.6586 127.477 68.2571 127.477ZM73.1179 121.023V119.773H80.2088V121.023H77.3452V128.5H76.0043V121.023H73.1179ZM82.1648 131.773V119.773H83.4602V121.159H83.6193C83.7178 121.008 83.8542 120.814 84.0284 120.58C84.2064 120.341 84.4602 120.129 84.7898 119.943C85.1231 119.754 85.5739 119.659 86.142 119.659C86.8769 119.659 87.5246 119.843 88.0852 120.21C88.6458 120.578 89.0833 121.098 89.3977 121.773C89.7121 122.447 89.8693 123.242 89.8693 124.159C89.8693 125.083 89.7121 125.884 89.3977 126.562C89.0833 127.237 88.6477 127.759 88.0909 128.131C87.5341 128.498 86.892 128.682 86.1648 128.682C85.6042 128.682 85.1553 128.589 84.8182 128.403C84.4811 128.214 84.2216 128 84.0398 127.761C83.858 127.519 83.7178 127.318 83.6193 127.159H83.5057V131.773H82.1648ZM83.483 124.136C83.483 124.795 83.5795 125.377 83.7727 125.881C83.9659 126.381 84.2481 126.773 84.6193 127.057C84.9905 127.337 85.4451 127.477 85.983 127.477C86.5436 127.477 87.0114 127.33 87.3864 127.034C87.7652 126.735 88.0492 126.333 88.2386 125.83C88.4318 125.322 88.5284 124.758 88.5284 124.136C88.5284 123.523 88.4337 122.97 88.2443 122.477C88.0587 121.981 87.7765 121.589 87.3977 121.301C87.0227 121.009 86.5511 120.864 85.983 120.864C85.4375 120.864 84.9792 121.002 84.608 121.278C84.2367 121.551 83.9564 121.934 83.767 122.426C83.5777 122.915 83.483 123.485 83.483 124.136ZM94.483 128.705C93.9299 128.705 93.428 128.6 92.9773 128.392C92.5265 128.18 92.1686 127.875 91.9034 127.477C91.6383 127.076 91.5057 126.591 91.5057 126.023C91.5057 125.523 91.6042 125.117 91.8011 124.807C91.9981 124.492 92.2614 124.246 92.5909 124.068C92.9205 123.89 93.2841 123.758 93.6818 123.67C94.0833 123.58 94.4867 123.508 94.892 123.455C95.4223 123.386 95.8523 123.335 96.1818 123.301C96.5152 123.263 96.7576 123.201 96.9091 123.114C97.0644 123.027 97.142 122.875 97.142 122.659V122.614C97.142 122.053 96.9886 121.617 96.6818 121.307C96.3788 120.996 95.9186 120.841 95.3011 120.841C94.661 120.841 94.1591 120.981 93.7955 121.261C93.4318 121.542 93.1761 121.841 93.0284 122.159L91.7557 121.705C91.983 121.174 92.286 120.761 92.6648 120.466C93.0473 120.167 93.464 119.958 93.9148 119.841C94.3693 119.72 94.8163 119.659 95.2557 119.659C95.536 119.659 95.858 119.693 96.2216 119.761C96.589 119.826 96.9432 119.96 97.2841 120.165C97.6288 120.369 97.9148 120.678 98.142 121.091C98.3693 121.504 98.483 122.057 98.483 122.75V128.5H97.142V127.318H97.0739C96.983 127.508 96.8314 127.71 96.6193 127.926C96.4072 128.142 96.125 128.326 95.7727 128.477C95.4205 128.629 94.9905 128.705 94.483 128.705ZM94.6875 127.5C95.2178 127.5 95.6648 127.396 96.0284 127.188C96.3958 126.979 96.6723 126.71 96.858 126.381C97.0473 126.051 97.142 125.705 97.142 125.341V124.114C97.0852 124.182 96.9602 124.244 96.767 124.301C96.5777 124.354 96.358 124.402 96.108 124.443C95.8617 124.481 95.6212 124.515 95.3864 124.545C95.1553 124.572 94.9678 124.595 94.8239 124.614C94.4754 124.659 94.1496 124.733 93.8466 124.835C93.5473 124.934 93.3049 125.083 93.1193 125.284C92.9375 125.481 92.8466 125.75 92.8466 126.091C92.8466 126.557 93.0189 126.909 93.3636 127.148C93.7121 127.383 94.1534 127.5 94.6875 127.5ZM104.476 128.682C103.658 128.682 102.953 128.489 102.362 128.102C101.771 127.716 101.317 127.184 100.999 126.506C100.68 125.828 100.521 125.053 100.521 124.182C100.521 123.295 100.684 122.513 101.01 121.835C101.339 121.153 101.798 120.621 102.385 120.239C102.976 119.852 103.665 119.659 104.453 119.659C105.067 119.659 105.62 119.773 106.112 120C106.605 120.227 107.008 120.545 107.322 120.955C107.637 121.364 107.832 121.841 107.908 122.386H106.567C106.464 121.989 106.237 121.636 105.885 121.33C105.536 121.019 105.067 120.864 104.476 120.864C103.953 120.864 103.495 121 103.101 121.273C102.711 121.542 102.406 121.922 102.186 122.415C101.97 122.903 101.862 123.477 101.862 124.136C101.862 124.811 101.968 125.398 102.18 125.898C102.396 126.398 102.699 126.786 103.089 127.062C103.483 127.339 103.946 127.477 104.476 127.477C104.824 127.477 105.141 127.417 105.425 127.295C105.709 127.174 105.949 127 106.146 126.773C106.343 126.545 106.483 126.273 106.567 125.955H107.908C107.832 126.47 107.644 126.934 107.345 127.347C107.05 127.756 106.658 128.081 106.169 128.324C105.684 128.562 105.12 128.682 104.476 128.682ZM109.095 128.5V127.25H109.413C109.675 127.25 109.893 127.199 110.067 127.097C110.241 126.991 110.381 126.807 110.487 126.545C110.597 126.28 110.68 125.913 110.737 125.443C110.798 124.97 110.841 124.367 110.868 123.636L111.027 119.773H116.845V128.5H115.504V121.023H112.3L112.163 124.136C112.133 124.852 112.069 125.483 111.97 126.028C111.875 126.57 111.73 127.025 111.533 127.392C111.339 127.759 111.082 128.036 110.76 128.222C110.438 128.407 110.035 128.5 109.55 128.5H109.095ZM120.646 126.523L124.851 119.773H126.396V128.5H125.055V121.75L120.874 128.5H119.305V119.773H120.646V126.523Z" fill="white"/>
<defs>
<linearGradient id="paint0_linear_1_7415" x1="-5.54631e-08" y1="92.0398" x2="191" y2="92.0398" gradientUnits="userSpaceOnUse">
<stop stop-color="#A88453"/>
<stop offset="1" stop-color="#D8C197"/>
</linearGradient>
</defs>
</svg>
