<svg width="191" height="185" viewBox="0 0 191 185" fill="none" xmlns="http://www.w3.org/2000/svg">
<rect width="191" height="185" rx="92.5" fill="#F0F2F5"/>
<path d="M66.3885 80.9972C63.737 80.9972 61.3755 80.5414 59.304 79.63C57.2443 78.7067 55.6167 77.4401 54.4212 75.8303C53.2375 74.2086 52.6278 72.3383 52.5923 70.2195H60.3338C60.3812 71.1072 60.6712 71.8885 61.2038 72.5632C61.7483 73.2261 62.4704 73.741 63.37 74.108C64.2696 74.4749 65.2817 74.6584 66.4062 74.6584C67.5781 74.6584 68.6139 74.4512 69.5135 74.0369C70.4131 73.6226 71.1174 73.0485 71.6264 72.3146C72.1354 71.5807 72.3899 70.7344 72.3899 69.7756C72.3899 68.8049 72.1177 67.9467 71.5732 67.201C71.0405 66.4434 70.2711 65.8516 69.2649 65.4254C68.2706 64.9993 67.0869 64.7862 65.7138 64.7862H62.3224V59.1399H65.7138C66.8738 59.1399 67.8977 58.9387 68.7855 58.5362C69.6851 58.1338 70.3835 57.5774 70.8807 56.8672C71.3778 56.1451 71.6264 55.3047 71.6264 54.3459C71.6264 53.4344 71.4074 52.6354 70.9695 51.9489C70.5433 51.2505 69.9396 50.706 69.1584 50.3153C68.389 49.9247 67.4893 49.7294 66.4595 49.7294C65.4179 49.7294 64.465 49.9188 63.6009 50.2976C62.7367 50.6645 62.0443 51.1913 61.5234 51.8778C61.0026 52.5644 60.7244 53.3693 60.6889 54.2926H53.3203C53.3558 52.1974 53.9536 50.3509 55.1136 48.7528C56.2737 47.1548 57.8362 45.906 59.8011 45.0064C61.7779 44.0949 64.0092 43.6392 66.495 43.6392C69.0045 43.6392 71.2003 44.0949 73.0824 45.0064C74.9645 45.9178 76.4264 47.1489 77.468 48.6996C78.5215 50.2384 79.0424 51.9666 79.0305 53.8842C79.0424 55.9202 78.4091 57.6188 77.1307 58.9801C75.8641 60.3414 74.2128 61.2055 72.1768 61.5724V61.8565C74.852 62.1998 76.888 63.129 78.2848 64.6442C79.6934 66.1475 80.3918 68.0296 80.38 70.2905C80.3918 72.362 79.794 74.2027 78.5866 75.8125C77.3911 77.4223 75.7398 78.6889 73.6328 79.6122C71.5258 80.5355 69.111 80.9972 66.3885 80.9972ZM100.164 81.299C97.1103 81.2872 94.4824 80.5355 92.2807 79.044C90.0909 77.5526 88.4041 75.3923 87.2203 72.5632C86.0485 69.7341 85.4685 66.331 85.4803 62.3537C85.4803 58.3883 86.0662 55.0088 87.2381 52.2152C88.4218 49.4216 90.1086 47.2969 92.2985 45.8409C94.5002 44.3731 97.1221 43.6392 100.164 43.6392C103.206 43.6392 105.822 44.3731 108.012 45.8409C110.214 47.3087 111.907 49.4394 113.09 52.233C114.274 55.0147 114.86 58.3883 114.848 62.3537C114.848 66.3428 114.256 69.7519 113.073 72.581C111.901 75.41 110.22 77.5703 108.03 79.0618C105.84 80.5533 103.218 81.299 100.164 81.299ZM100.164 74.9247C102.248 74.9247 103.911 73.8771 105.154 71.782C106.396 69.6868 107.012 66.544 107 62.3537C107 59.5956 106.716 57.2992 106.148 55.4645C105.592 53.6297 104.798 52.2507 103.769 51.3274C102.751 50.4041 101.549 49.9425 100.164 49.9425C98.0927 49.9425 96.4355 50.9782 95.1926 53.0497C93.9498 55.1212 93.3224 58.2225 93.3105 62.3537C93.3105 65.1473 93.5887 67.4792 94.1451 69.3494C94.7132 71.2079 95.5123 72.6046 96.5421 73.5398C97.5719 74.4631 98.7793 74.9247 100.164 74.9247ZM131.197 74.9602V49.8182H137.553V74.9602H131.197ZM121.804 65.5675V59.2109H146.946V65.5675H121.804Z" fill="url(#paint0_linear_1_7418)"/>
<path d="M60.7727 100.5H59.3636C59.2803 100.095 59.1345 99.7386 58.9261 99.4318C58.7216 99.125 58.4716 98.8674 58.1761 98.6591C57.8845 98.447 57.5606 98.2879 57.2045 98.1818C56.8485 98.0758 56.4773 98.0227 56.0909 98.0227C55.3864 98.0227 54.7481 98.2008 54.1761 98.5568C53.608 98.9129 53.1553 99.4375 52.8182 100.131C52.4848 100.824 52.3182 101.674 52.3182 102.682C52.3182 103.689 52.4848 104.54 52.8182 105.233C53.1553 105.926 53.608 106.451 54.1761 106.807C54.7481 107.163 55.3864 107.341 56.0909 107.341C56.4773 107.341 56.8485 107.288 57.2045 107.182C57.5606 107.076 57.8845 106.919 58.1761 106.71C58.4716 106.498 58.7216 106.239 58.9261 105.932C59.1345 105.621 59.2803 105.265 59.3636 104.864H60.7727C60.6667 105.458 60.4735 105.991 60.1932 106.46C59.9129 106.93 59.5644 107.33 59.1477 107.659C58.7311 107.985 58.2633 108.233 57.7443 108.403C57.2292 108.574 56.678 108.659 56.0909 108.659C55.0985 108.659 54.2159 108.417 53.4432 107.932C52.6705 107.447 52.0625 106.758 51.6193 105.864C51.1761 104.97 50.9545 103.909 50.9545 102.682C50.9545 101.455 51.1761 100.394 51.6193 99.5C52.0625 98.6061 52.6705 97.9167 53.4432 97.4318C54.2159 96.947 55.0985 96.7045 56.0909 96.7045C56.678 96.7045 57.2292 96.7898 57.7443 96.9602C58.2633 97.1307 58.7311 97.3807 59.1477 97.7102C59.5644 98.036 59.9129 98.4337 60.1932 98.9034C60.4735 99.3693 60.6667 99.9015 60.7727 100.5ZM62.8679 108.5V99.7727H69.7315V108.5H68.3906V101.023H64.2088V108.5H62.8679ZM75.8395 108.682C74.9986 108.682 74.2732 108.496 73.6634 108.125C73.0573 107.75 72.5895 107.227 72.2599 106.557C71.9342 105.883 71.7713 105.098 71.7713 104.205C71.7713 103.311 71.9342 102.523 72.2599 101.841C72.5895 101.155 73.0478 100.621 73.6349 100.239C74.2259 99.8523 74.9152 99.6591 75.7031 99.6591C76.1577 99.6591 76.6065 99.7348 77.0497 99.8864C77.4929 100.038 77.8963 100.284 78.2599 100.625C78.6236 100.962 78.9134 101.409 79.1293 101.966C79.3452 102.523 79.4531 103.208 79.4531 104.023V104.591H72.7259V103.432H78.0895C78.0895 102.939 77.991 102.5 77.794 102.114C77.6009 101.727 77.3243 101.422 76.9645 101.199C76.6084 100.975 76.188 100.864 75.7031 100.864C75.169 100.864 74.7069 100.996 74.3168 101.261C73.9304 101.523 73.633 101.864 73.4247 102.284C73.2164 102.705 73.1122 103.155 73.1122 103.636V104.409C73.1122 105.068 73.2259 105.627 73.4531 106.085C73.6842 106.54 74.0043 106.886 74.4134 107.125C74.8224 107.36 75.2978 107.477 75.8395 107.477C76.1918 107.477 76.5099 107.428 76.794 107.33C77.0819 107.227 77.33 107.076 77.5384 106.875C77.7467 106.67 77.9077 106.417 78.0213 106.114L79.3168 106.477C79.1804 106.917 78.9512 107.303 78.6293 107.636C78.3073 107.966 77.9096 108.223 77.4361 108.409C76.9626 108.591 76.4304 108.682 75.8395 108.682ZM88.3565 99.7727V107.25H89.5838V111.318H88.2429V108.5H81.4929V99.7727H82.8338V107.25H87.0156V99.7727H88.3565ZM92.9901 106.523L97.1946 99.7727H98.7401V108.5H97.3991V101.75L93.2173 108.5H91.6491V99.7727H92.9901V106.523ZM103.764 108.705C103.211 108.705 102.709 108.6 102.259 108.392C101.808 108.18 101.45 107.875 101.185 107.477C100.92 107.076 100.787 106.591 100.787 106.023C100.787 105.523 100.885 105.117 101.082 104.807C101.279 104.492 101.543 104.246 101.872 104.068C102.202 103.89 102.565 103.758 102.963 103.67C103.365 103.58 103.768 103.508 104.173 103.455C104.704 103.386 105.134 103.335 105.463 103.301C105.796 103.263 106.039 103.201 106.19 103.114C106.346 103.027 106.423 102.875 106.423 102.659V102.614C106.423 102.053 106.27 101.617 105.963 101.307C105.66 100.996 105.2 100.841 104.582 100.841C103.942 100.841 103.44 100.981 103.077 101.261C102.713 101.542 102.457 101.841 102.31 102.159L101.037 101.705C101.264 101.174 101.567 100.761 101.946 100.466C102.329 100.167 102.745 99.9583 103.196 99.8409C103.651 99.7197 104.098 99.6591 104.537 99.6591C104.817 99.6591 105.139 99.6932 105.503 99.7614C105.87 99.8258 106.224 99.9602 106.565 100.165C106.91 100.369 107.196 100.678 107.423 101.091C107.651 101.504 107.764 102.057 107.764 102.75V108.5H106.423V107.318H106.355C106.264 107.508 106.113 107.71 105.901 107.926C105.688 108.142 105.406 108.326 105.054 108.477C104.702 108.629 104.272 108.705 103.764 108.705ZM103.969 107.5C104.499 107.5 104.946 107.396 105.31 107.188C105.677 106.979 105.954 106.71 106.139 106.381C106.329 106.051 106.423 105.705 106.423 105.341V104.114C106.366 104.182 106.241 104.244 106.048 104.301C105.859 104.354 105.639 104.402 105.389 104.443C105.143 104.481 104.902 104.515 104.668 104.545C104.437 104.572 104.249 104.595 104.105 104.614C103.757 104.659 103.431 104.733 103.128 104.835C102.829 104.934 102.586 105.083 102.401 105.284C102.219 105.481 102.128 105.75 102.128 106.091C102.128 106.557 102.3 106.909 102.645 107.148C102.993 107.383 103.435 107.5 103.969 107.5ZM109.439 108.5V107.25H109.757C110.018 107.25 110.236 107.199 110.411 107.097C110.585 106.991 110.725 106.807 110.831 106.545C110.941 106.28 111.024 105.913 111.081 105.443C111.142 104.97 111.185 104.367 111.212 103.636L111.371 99.7727H117.189V108.5H115.848V101.023H112.643L112.507 104.136C112.477 104.852 112.412 105.483 112.314 106.028C112.219 106.57 112.073 107.025 111.876 107.392C111.683 107.759 111.426 108.036 111.104 108.222C110.782 108.407 110.378 108.5 109.893 108.5H109.439ZM120.99 106.523L125.195 99.7727H126.74V108.5H125.399V101.75L121.217 108.5H119.649V99.7727H120.99V106.523ZM132.741 108.682C131.923 108.682 131.219 108.489 130.628 108.102C130.037 107.716 129.582 107.184 129.264 106.506C128.946 105.828 128.787 105.053 128.787 104.182C128.787 103.295 128.95 102.513 129.276 101.835C129.605 101.153 130.063 100.621 130.651 100.239C131.241 99.8523 131.931 99.6591 132.719 99.6591C133.332 99.6591 133.885 99.7727 134.378 100C134.87 100.227 135.274 100.545 135.588 100.955C135.902 101.364 136.098 101.841 136.173 102.386H134.832C134.73 101.989 134.503 101.636 134.151 101.33C133.802 101.019 133.332 100.864 132.741 100.864C132.219 100.864 131.76 101 131.366 101.273C130.976 101.542 130.671 101.922 130.452 102.415C130.236 102.903 130.128 103.477 130.128 104.136C130.128 104.811 130.234 105.398 130.446 105.898C130.662 106.398 130.965 106.786 131.355 107.062C131.749 107.339 132.211 107.477 132.741 107.477C133.09 107.477 133.406 107.417 133.69 107.295C133.974 107.174 134.215 107 134.412 106.773C134.609 106.545 134.749 106.273 134.832 105.955H136.173C136.098 106.47 135.91 106.934 135.611 107.347C135.315 107.756 134.923 108.081 134.435 108.324C133.95 108.562 133.385 108.682 132.741 108.682ZM137.446 101.023V99.7727H144.537V101.023H141.673V108.5H140.332V101.023H137.446ZM149.585 108.682C148.797 108.682 148.106 108.494 147.511 108.119C146.92 107.744 146.458 107.22 146.125 106.545C145.795 105.871 145.631 105.083 145.631 104.182C145.631 103.273 145.795 102.479 146.125 101.801C146.458 101.123 146.92 100.597 147.511 100.222C148.106 99.8466 148.797 99.6591 149.585 99.6591C150.373 99.6591 151.063 99.8466 151.653 100.222C152.248 100.597 152.71 101.123 153.04 101.801C153.373 102.479 153.54 103.273 153.54 104.182C153.54 105.083 153.373 105.871 153.04 106.545C152.71 107.22 152.248 107.744 151.653 108.119C151.063 108.494 150.373 108.682 149.585 108.682ZM149.585 107.477C150.184 107.477 150.676 107.324 151.062 107.017C151.449 106.71 151.735 106.307 151.92 105.807C152.106 105.307 152.199 104.765 152.199 104.182C152.199 103.598 152.106 103.055 151.92 102.551C151.735 102.047 151.449 101.64 151.062 101.33C150.676 101.019 150.184 100.864 149.585 100.864C148.987 100.864 148.494 101.019 148.108 101.33C147.722 101.64 147.436 102.047 147.25 102.551C147.064 103.055 146.972 103.598 146.972 104.182C146.972 104.765 147.064 105.307 147.25 105.807C147.436 106.307 147.722 106.71 148.108 107.017C148.494 107.324 148.987 107.477 149.585 107.477ZM155.587 108.5V99.7727H159.155C160.094 99.7727 160.84 99.9848 161.393 100.409C161.946 100.833 162.223 101.394 162.223 102.091C162.223 102.621 162.066 103.032 161.751 103.324C161.437 103.612 161.034 103.807 160.541 103.909C160.863 103.955 161.176 104.068 161.479 104.25C161.786 104.432 162.039 104.682 162.24 105C162.441 105.314 162.541 105.701 162.541 106.159C162.541 106.606 162.428 107.006 162.2 107.358C161.973 107.71 161.647 107.989 161.223 108.193C160.799 108.398 160.291 108.5 159.7 108.5H155.587ZM156.859 107.273H159.7C160.162 107.273 160.524 107.163 160.786 106.943C161.047 106.723 161.178 106.424 161.178 106.045C161.178 105.595 161.047 105.241 160.786 104.983C160.524 104.722 160.162 104.591 159.7 104.591H156.859V107.273ZM156.859 103.432H159.155C159.515 103.432 159.823 103.383 160.081 103.284C160.339 103.182 160.536 103.038 160.672 102.852C160.812 102.663 160.882 102.439 160.882 102.182C160.882 101.814 160.729 101.527 160.422 101.318C160.115 101.106 159.693 101 159.155 101H156.859V103.432ZM51.2273 128.5V119.773H54.7955C55.7348 119.773 56.4811 119.985 57.0341 120.409C57.5871 120.833 57.8636 121.394 57.8636 122.091C57.8636 122.621 57.7064 123.032 57.392 123.324C57.0777 123.612 56.6742 123.807 56.1818 123.909C56.5038 123.955 56.8163 124.068 57.1193 124.25C57.4261 124.432 57.6799 124.682 57.8807 125C58.0814 125.314 58.1818 125.701 58.1818 126.159C58.1818 126.606 58.0682 127.006 57.8409 127.358C57.6136 127.71 57.2879 127.989 56.8636 128.193C56.4394 128.398 55.9318 128.5 55.3409 128.5H51.2273ZM52.5 127.273H55.3409C55.803 127.273 56.1648 127.163 56.4261 126.943C56.6875 126.723 56.8182 126.424 56.8182 126.045C56.8182 125.595 56.6875 125.241 56.4261 124.983C56.1648 124.722 55.803 124.591 55.3409 124.591H52.5V127.273ZM52.5 123.432H54.7955C55.1553 123.432 55.464 123.383 55.7216 123.284C55.9792 123.182 56.1761 123.038 56.3125 122.852C56.4527 122.663 56.5227 122.439 56.5227 122.182C56.5227 121.814 56.3693 121.527 56.0625 121.318C55.7557 121.106 55.3333 121 54.7955 121H52.5V123.432ZM64.7116 128.5V119.773H66.0526V123.568H66.9389L70.0753 119.773H71.8026L68.2798 123.977L71.848 128.5H70.1207L67.2571 124.818H66.0526V128.5H64.7116ZM76.4915 128.682C75.7036 128.682 75.0123 128.494 74.4176 128.119C73.8267 127.744 73.3646 127.22 73.0312 126.545C72.7017 125.871 72.5369 125.083 72.5369 124.182C72.5369 123.273 72.7017 122.479 73.0312 121.801C73.3646 121.123 73.8267 120.597 74.4176 120.222C75.0123 119.847 75.7036 119.659 76.4915 119.659C77.2794 119.659 77.9688 119.847 78.5597 120.222C79.1544 120.597 79.6165 121.123 79.946 121.801C80.2794 122.479 80.446 123.273 80.446 124.182C80.446 125.083 80.2794 125.871 79.946 126.545C79.6165 127.22 79.1544 127.744 78.5597 128.119C77.9688 128.494 77.2794 128.682 76.4915 128.682ZM76.4915 127.477C77.09 127.477 77.5824 127.324 77.9688 127.017C78.3551 126.71 78.6411 126.307 78.8267 125.807C79.0123 125.307 79.1051 124.765 79.1051 124.182C79.1051 123.598 79.0123 123.055 78.8267 122.551C78.6411 122.047 78.3551 121.64 77.9688 121.33C77.5824 121.019 77.09 120.864 76.4915 120.864C75.893 120.864 75.4006 121.019 75.0142 121.33C74.6278 121.64 74.3419 122.047 74.1562 122.551C73.9706 123.055 73.8778 123.598 73.8778 124.182C73.8778 124.765 73.9706 125.307 74.1562 125.807C74.3419 126.307 74.6278 126.71 75.0142 127.017C75.4006 127.324 75.893 127.477 76.4915 127.477ZM87.2656 126.682L90.3111 119.773H91.5838L87.8111 128.5H86.7202L83.0156 119.773H84.2656L87.2656 126.682ZM83.8338 119.773V128.5H82.4929V119.773H83.8338ZM90.6974 128.5V119.773H92.0384V128.5H90.6974ZM97.0611 128.705C96.508 128.705 96.0062 128.6 95.5554 128.392C95.1046 128.18 94.7467 127.875 94.4815 127.477C94.2164 127.076 94.0838 126.591 94.0838 126.023C94.0838 125.523 94.1823 125.117 94.3793 124.807C94.5762 124.492 94.8395 124.246 95.169 124.068C95.4986 123.89 95.8622 123.758 96.2599 123.67C96.6615 123.58 97.0649 123.508 97.4702 123.455C98.0005 123.386 98.4304 123.335 98.7599 123.301C99.0933 123.263 99.3357 123.201 99.4872 123.114C99.6425 123.027 99.7202 122.875 99.7202 122.659V122.614C99.7202 122.053 99.5668 121.617 99.2599 121.307C98.9569 120.996 98.4967 120.841 97.8793 120.841C97.2391 120.841 96.7372 120.981 96.3736 121.261C96.0099 121.542 95.7543 121.841 95.6065 122.159L94.3338 121.705C94.5611 121.174 94.8641 120.761 95.2429 120.466C95.6255 120.167 96.0421 119.958 96.4929 119.841C96.9474 119.72 97.3944 119.659 97.8338 119.659C98.1141 119.659 98.4361 119.693 98.7997 119.761C99.1671 119.826 99.5213 119.96 99.8622 120.165C100.207 120.369 100.493 120.678 100.72 121.091C100.947 121.504 101.061 122.057 101.061 122.75V128.5H99.7202V127.318H99.652C99.5611 127.508 99.4096 127.71 99.1974 127.926C98.9853 128.142 98.7031 128.326 98.3509 128.477C97.9986 128.629 97.5687 128.705 97.0611 128.705ZM97.2656 127.5C97.7959 127.5 98.2429 127.396 98.6065 127.188C98.974 126.979 99.2505 126.71 99.4361 126.381C99.6255 126.051 99.7202 125.705 99.7202 125.341V124.114C99.6634 124.182 99.5384 124.244 99.3452 124.301C99.1558 124.354 98.9361 124.402 98.6861 124.443C98.4399 124.481 98.1993 124.515 97.9645 124.545C97.7334 124.572 97.5459 124.595 97.402 124.614C97.0535 124.659 96.7277 124.733 96.4247 124.835C96.1255 124.934 95.883 125.083 95.6974 125.284C95.5156 125.481 95.4247 125.75 95.4247 126.091C95.4247 126.557 95.5971 126.909 95.9418 127.148C96.2902 127.383 96.7315 127.5 97.2656 127.5ZM109.349 123.523V124.773H104.531V123.523H109.349ZM104.849 119.773V128.5H103.509V119.773H104.849ZM110.372 119.773V128.5H109.031V119.773H110.372ZM111.889 131V127.25H112.616C112.795 127.064 112.948 126.864 113.077 126.648C113.205 126.432 113.317 126.176 113.412 125.881C113.51 125.581 113.594 125.218 113.662 124.79C113.73 124.358 113.791 123.837 113.844 123.227L114.139 119.773H119.685V127.25H121.026V131H119.685V128.5H113.23V131H111.889ZM114.139 127.25H118.344V121.023H115.389L115.162 123.227C115.067 124.14 114.95 124.937 114.81 125.619C114.67 126.301 114.446 126.845 114.139 127.25ZM126.464 128.682C125.624 128.682 124.898 128.496 124.288 128.125C123.682 127.75 123.214 127.227 122.885 126.557C122.559 125.883 122.396 125.098 122.396 124.205C122.396 123.311 122.559 122.523 122.885 121.841C123.214 121.155 123.673 120.621 124.26 120.239C124.851 119.852 125.54 119.659 126.328 119.659C126.783 119.659 127.232 119.735 127.675 119.886C128.118 120.038 128.521 120.284 128.885 120.625C129.249 120.962 129.538 121.409 129.754 121.966C129.97 122.523 130.078 123.208 130.078 124.023V124.591H123.351V123.432H128.714C128.714 122.939 128.616 122.5 128.419 122.114C128.226 121.727 127.949 121.422 127.589 121.199C127.233 120.975 126.813 120.864 126.328 120.864C125.794 120.864 125.332 120.996 124.942 121.261C124.555 121.523 124.258 121.864 124.05 122.284C123.841 122.705 123.737 123.155 123.737 123.636V124.409C123.737 125.068 123.851 125.627 124.078 126.085C124.309 126.54 124.629 126.886 125.038 127.125C125.447 127.36 125.923 127.477 126.464 127.477C126.817 127.477 127.135 127.428 127.419 127.33C127.707 127.227 127.955 127.076 128.163 126.875C128.372 126.67 128.533 126.417 128.646 126.114L129.942 126.477C129.805 126.917 129.576 127.303 129.254 127.636C128.932 127.966 128.535 128.223 128.061 128.409C127.588 128.591 127.055 128.682 126.464 128.682Z" fill="#1A2042"/>
<defs>
<linearGradient id="paint0_linear_1_7418" x1="50" y1="67.4254" x2="178" y2="67.4254" gradientUnits="userSpaceOnUse">
<stop stop-color="#A88453"/>
<stop offset="1" stop-color="#D8C197"/>
</linearGradient>
</defs>
</svg>
